<svg width="37" height="30" viewBox="0 0 37 30" fill="none" xmlns="http://www.w3.org/2000/svg">
<line x1="18" y1="15" x2="18" y2="20" stroke="#4147D5" stroke-width="2"/>
<path d="M21.2283 17C19.9463 17 18.7988 17.6233 18.0833 18.5796C17.7179 18.09 17.2434 17.6923 16.6975 17.4181C16.1516 17.1439 15.5492 17.0008 14.9383 17C12.7638 17 11 18.7708 11 20.9596C11 21.8025 11.1346 22.5817 11.3683 23.3042C12.4875 26.8458 15.9371 28.9638 17.6442 29.5446C17.885 29.6296 18.2817 29.6296 18.5225 29.5446C20.2296 28.9638 23.6792 26.8458 24.7983 23.3042C25.0321 22.5817 25.1667 21.8025 25.1667 20.9596C25.1667 18.7708 23.4029 17 21.2283 17V17Z" fill="#4147D5"/>
<path fill-rule="evenodd" clip-rule="evenodd" d="M0.16748 0C1.38798 9.03489 9.13059 16 18.5 16C27.8694 16 35.612 9.03489 36.8325 0H35.8228C34.6097 8.48074 27.3162 15 18.5 15C9.68382 15 2.39029 8.48074 1.17722 0H0.16748Z" fill="#4147D5"/>
<path d="M14 19L14.2245 19.691H14.9511L14.3633 20.118L14.5878 20.809L14 20.382L13.4122 20.809L13.6367 20.118L13.0489 19.691H13.7755L14 19Z" fill="white"/>
</svg>
