<svg width="24" height="24" viewBox="0 0 24 24" fill="none" xmlns="http://www.w3.org/2000/svg">
<path d="M12 20.3997C9.08337 20.3997 6.50504 18.9063 5.00004 16.6663C5.03504 14.333 9.66671 13.0497 12 13.0497C14.3334 13.0497 18.965 14.333 19 16.6663C18.2287 17.8148 17.1869 18.756 15.9662 19.4071C14.7455 20.0581 13.3835 20.399 12 20.3997ZM12 3.83301C12.9283 3.83301 13.8185 4.20176 14.4749 4.85813C15.1313 5.51451 15.5 6.40475 15.5 7.33301C15.5 8.26127 15.1313 9.15151 14.4749 9.80788C13.8185 10.4643 12.9283 10.833 12 10.833C11.0718 10.833 10.1815 10.4643 9.52517 9.80788C8.86879 9.15151 8.50004 8.26127 8.50004 7.33301C8.50004 6.40475 8.86879 5.51451 9.52517 4.85813C10.1815 4.20176 11.0718 3.83301 12 3.83301ZM12 0.333008C10.468 0.333008 8.95087 0.634775 7.5354 1.22108C6.11994 1.80738 4.83381 2.66675 3.75046 3.7501C1.56254 5.93802 0.333374 8.90548 0.333374 11.9997C0.333374 15.0939 1.56254 18.0613 3.75046 20.2493C4.83381 21.3326 6.11994 22.192 7.5354 22.7783C8.95087 23.3646 10.468 23.6663 12 23.6663C15.0942 23.6663 18.0617 22.4372 20.2496 20.2493C22.4375 18.0613 23.6667 15.0939 23.6667 11.9997C23.6667 5.54801 18.4167 0.333008 12 0.333008Z" fill="#263238"/>
</svg>
