<svg width="22" height="21" viewBox="0 0 22 21" fill="none" xmlns="http://www.w3.org/2000/svg">
<path d="M13.6241 1.00562C13.6241 1.70083 13.3479 2.36757 12.8563 2.85917C12.3647 3.35076 11.698 3.62692 11.0028 3.62692C10.3076 3.62692 9.64083 3.35076 9.14923 2.85917C8.65764 2.36757 8.38147 1.70083 8.38147 1.00562" stroke="#4147D5" stroke-width="1.25" stroke-miterlimit="10"/>
<path d="M4.66281 11.2636L1.51947 10.5339C1.43077 10.5127 1.34727 10.4738 1.27398 10.4196C1.20069 10.3653 1.13912 10.2968 1.09298 10.2182C1.04684 10.1395 1.01708 10.0524 1.00549 9.96193C0.993896 9.87149 1.00071 9.77964 1.02552 9.6919L2.75716 3.85146C2.80028 3.69168 2.90003 3.55303 3.03782 3.46135L7.60969 1.10946C7.71938 1.03884 7.84689 1.00087 7.97735 1H14.0198C14.1494 1.00078 14.2761 1.03878 14.3847 1.10946L18.9594 3.46135C19.0983 3.55187 19.1984 3.691 19.24 3.85146L20.9745 9.6919C20.9993 9.77964 21.0061 9.87149 20.9945 9.96193C20.9829 10.0524 20.9532 10.1395 20.907 10.2182C20.8609 10.2968 20.7993 10.3653 20.726 10.4196C20.6527 10.4738 20.5692 10.5127 20.4805 10.5339L17.3372 11.2636" stroke="#4147D5" stroke-width="1.25" stroke-miterlimit="10"/>
<path d="M4.66285 9.15582V17.6007C4.66185 18.1741 4.88021 18.726 5.27316 19.1435C5.6661 19.561 6.20386 19.8123 6.77618 19.846V19.846C8.1293 20.092 9.50127 20.2197 10.8765 20.2277H11.1319C12.5063 20.2197 13.8773 20.092 15.2295 19.846C15.8023 19.813 16.3408 19.562 16.7343 19.1444C17.1278 18.7269 17.3466 18.1745 17.3456 17.6007V9.15582" stroke="#4147D5" stroke-width="1.25" stroke-miterlimit="10" stroke-linecap="round"/>
</svg>
