<svg width="222" height="162" viewBox="0 0 222 162" fill="none" xmlns="http://www.w3.org/2000/svg">
<g filter="url(#filter0_d_622_174)">
<path d="M175.722 15H46.2783C36.7358 15 29 22.7358 29 32.2783V101.132C29 110.674 36.7358 118.41 46.2783 118.41H175.722C185.264 118.41 193 110.674 193 101.132V32.2783C193 22.7358 185.264 15 175.722 15Z" fill="#3E0EFF"/>
<path d="M163.781 63.9551H46.2785C43.0976 63.9551 40.519 66.5337 40.519 69.7145V75.474C40.519 78.6548 43.0976 81.2334 46.2785 81.2334H163.781C166.961 81.2334 169.54 78.6548 169.54 75.474V69.7145C169.54 66.5337 166.961 63.9551 163.781 63.9551Z" fill="#EFEFEF" fill-opacity="0.5"/>
<path d="M74.8995 89.873H46.2785C43.0976 89.873 40.519 92.4516 40.519 95.6324C40.519 98.8133 43.0976 101.392 46.2785 101.392H74.8995C78.0804 101.392 80.6589 98.8133 80.6589 95.6324C80.6589 92.4516 78.0804 89.873 74.8995 89.873Z" fill="#EFEFEF" fill-opacity="0.5"/>
<mask id="mask0_622_174" style="mask-type:luminance" maskUnits="userSpaceOnUse" x="166" y="38" width="18" height="18">
<path d="M183.826 38.0381H166.623V55.3164H183.826V38.0381Z" fill="white"/>
</mask>
<g mask="url(#mask0_622_174)">
<path d="M179.328 53.7699C180.659 51.6454 181.367 49.1879 181.372 46.6783C181.378 44.1686 180.68 41.7081 179.359 39.5778C179.309 39.4951 179.243 39.4233 179.165 39.3666C179.087 39.31 178.998 39.2696 178.904 39.2479C178.81 39.2262 178.713 39.2237 178.618 39.2404C178.523 39.2571 178.432 39.2928 178.351 39.3453L178.27 39.3979C178.117 39.4988 178.01 39.6546 177.968 39.8331C177.927 40.0116 177.955 40.1993 178.048 40.3573C179.225 42.2477 179.847 44.4334 179.842 46.663C179.837 48.8925 179.206 51.0755 178.021 52.9608C177.928 53.1184 177.898 53.3059 177.939 53.4846C177.979 53.6633 178.087 53.8196 178.239 53.9212L178.32 53.9741C178.399 54.0281 178.488 54.0656 178.582 54.0845C178.676 54.1034 178.773 54.1034 178.867 54.0844C178.961 54.0654 179.05 54.0278 179.129 53.9738C179.208 53.9198 179.276 53.8505 179.328 53.7699Z" fill="white"/>
<path d="M176.436 51.8714C177.405 50.3096 177.921 48.5072 177.925 46.6671C177.929 44.8271 177.421 43.0224 176.459 41.4565C176.408 41.3752 176.342 41.3049 176.264 41.2496C176.185 41.1943 176.097 41.1551 176.004 41.1344C175.91 41.1136 175.814 41.1117 175.72 41.1287C175.626 41.1457 175.536 41.1814 175.456 41.2335L175.375 41.2861C175.222 41.387 175.114 41.5428 175.073 41.7214C175.032 41.8999 175.06 42.0875 175.153 42.2456C175.968 43.5701 176.398 45.0971 176.395 46.6542C176.391 48.2113 175.954 49.7365 175.134 51.0574C175.041 51.2151 175.011 51.4026 175.052 51.5813C175.092 51.76 175.2 51.9163 175.351 52.0178L175.433 52.0708C175.511 52.1242 175.6 52.1614 175.693 52.1803C175.786 52.1991 175.883 52.1993 175.976 52.1808C176.069 52.1622 176.158 52.1254 176.237 52.0723C176.316 52.0192 176.384 51.9509 176.436 51.8714Z" fill="white"/>
<path d="M173.549 49.9747C174.15 48.9746 174.47 47.8288 174.472 46.6603C174.475 45.4917 174.16 44.3446 173.563 43.3418C173.513 43.2607 173.447 43.1905 173.369 43.1352C173.291 43.08 173.203 43.0408 173.11 43.0201C173.018 42.9993 172.921 42.9974 172.828 43.0143C172.734 43.0313 172.645 43.0668 172.565 43.1189L172.488 43.1667C172.333 43.272 172.224 43.4337 172.184 43.6179C172.144 43.8021 172.177 43.9946 172.276 44.1549C172.718 44.9137 172.951 45.7776 172.949 46.657C172.947 47.5363 172.711 48.3992 172.265 49.156C172.166 49.3166 172.133 49.5093 172.173 49.6937C172.213 49.8782 172.322 50.04 172.478 50.1452L172.554 50.1934C172.634 50.2456 172.722 50.2815 172.816 50.2988C172.909 50.3161 173.005 50.3145 173.097 50.2941C173.19 50.2738 173.278 50.235 173.355 50.1802C173.433 50.1253 173.498 50.0555 173.549 49.9747Z" fill="white"/>
</g>
<path d="M51.5897 51.5682C57.6691 51.5365 62.5718 46.5608 62.5402 40.4548C62.5087 34.3488 57.5548 29.4246 51.4754 29.4563C45.3961 29.488 40.4934 34.4636 40.5249 40.5696C40.5565 46.6757 45.5104 51.5999 51.5897 51.5682Z" fill="white"/>
</g>
<defs>
<filter id="filter0_d_622_174" x="0.202999" y="0.6015" width="221.594" height="161.004" filterUnits="userSpaceOnUse" color-interpolation-filters="sRGB">
<feFlood flood-opacity="0" result="BackgroundImageFix"/>
<feColorMatrix in="SourceAlpha" type="matrix" values="0 0 0 0 0 0 0 0 0 0 0 0 0 0 0 0 0 0 127 0" result="hardAlpha"/>
<feOffset dy="14.3985"/>
<feGaussianBlur stdDeviation="14.3985"/>
<feComposite in2="hardAlpha" operator="out"/>
<feColorMatrix type="matrix" values="0 0 0 0 0 0 0 0 0 0 0 0 0 0 0 0 0 0 0.2 0"/>
<feBlend mode="normal" in2="BackgroundImageFix" result="effect1_dropShadow_622_174"/>
<feBlend mode="normal" in="SourceGraphic" in2="effect1_dropShadow_622_174" result="shape"/>
</filter>
</defs>
</svg>
