<svg width="141" height="100" viewBox="0 0 141 100" fill="none" xmlns="http://www.w3.org/2000/svg">
<rect x="4" y="4" width="133" height="92" rx="8" stroke="#4E5EC3" stroke-width="8"/>
<line x1="45" y1="98" x2="45" y2="2" stroke="#4E5EC3" stroke-width="8"/>
<line x1="141" y1="38" x2="76" y2="38" stroke="#4E5EC3" stroke-width="8"/>
<line x1="20" y1="38" x2="4" y2="38" stroke="#4E5EC3" stroke-width="8"/>
<mask id="path-5-inside-1_105_48" fill="white">
<path fill-rule="evenodd" clip-rule="evenodd" d="M32.695 25.8542C30.7395 24.6771 28.4488 24 26 24C18.8203 24 13 29.8203 13 37C13 44.1797 18.8203 50 26 50C28.4488 50 30.7394 49.3229 32.695 48.1458L52 37L32.695 25.8542Z"/>
</mask>
<path d="M32.695 25.8542L28.5691 32.7082L28.6317 32.7459L28.695 32.7825L32.695 25.8542ZM32.695 48.1458L28.695 41.2176L28.6317 41.2541L28.5691 41.2918L32.695 48.1458ZM52 37L56 43.9282L68 37L56 30.0718L52 37ZM26 32C26.9547 32 27.8243 32.2599 28.5691 32.7082L36.8209 19.0003C33.6547 17.0943 29.9429 16 26 16L26 32ZM21 37C21 34.2386 23.2386 32 26 32L26 16C14.402 16 5 25.402 5 37L21 37ZM26 42C23.2386 42 21 39.7614 21 37L5 37C5 48.598 14.402 58 26 58L26 42ZM28.5691 41.2918C27.8243 41.7401 26.9547 42 26 42L26 58C29.9429 58 33.6546 56.9057 36.8208 54.9998L28.5691 41.2918ZM48 30.0718L28.695 41.2176L36.695 55.074L56 43.9282L48 30.0718ZM28.695 32.7825L48 43.9282L56 30.0718L36.695 18.926L28.695 32.7825Z" fill="#4E5EC3" mask="url(#path-5-inside-1_105_48)"/>
<mask id="path-7-inside-2_105_48" fill="white">
<path fill-rule="evenodd" clip-rule="evenodd" d="M60.905 25.8542C62.8605 24.6771 65.1512 24 67.6 24C74.7797 24 80.6 29.8203 80.6 37C80.6 44.1797 74.7797 50 67.6 50C65.1512 50 62.8606 49.3229 60.9051 48.1458L41.6 37L60.905 25.8542Z"/>
</mask>
<path d="M60.905 25.8542L65.0309 32.7082L64.9683 32.7459L64.905 32.7825L60.905 25.8542ZM60.9051 48.1458L64.9051 41.2176L64.9683 41.2541L65.0309 41.2918L60.9051 48.1458ZM41.6 37L37.6 43.9282L25.6 37L37.6 30.0718L41.6 37ZM67.6 32C66.6453 32 65.7757 32.2599 65.0309 32.7082L56.7791 19.0003C59.9453 17.0943 63.6571 16 67.6 16L67.6 32ZM72.6 37C72.6 34.2386 70.3614 32 67.6 32L67.6 16C79.198 16 88.6 25.402 88.6 37L72.6 37ZM67.6 42C70.3614 42 72.6 39.7614 72.6 37L88.6 37C88.6 48.598 79.198 58 67.6 58L67.6 42ZM65.0309 41.2918C65.7758 41.7401 66.6453 42 67.6 42L67.6 58C63.6571 58 59.9454 56.9057 56.7792 54.9998L65.0309 41.2918ZM45.6 30.0718L64.9051 41.2176L56.905 55.074L37.6 43.9282L45.6 30.0718ZM64.905 32.7825L45.6 43.9282L37.6 30.0718L56.905 18.926L64.905 32.7825Z" fill="#4E5EC3" mask="url(#path-7-inside-2_105_48)"/>
<line x1="41" y1="45.6569" x2="32.6569" y2="54" stroke="#4E5EC3" stroke-width="8" stroke-linecap="round"/>
<line x1="90" y1="64" x2="124" y2="64" stroke="#4E5EC3" stroke-width="8" stroke-linecap="round"/>
<line x1="90" y1="78" x2="124" y2="78" stroke="#4E5EC3" stroke-width="8" stroke-linecap="round"/>
<line x1="49.6569" y1="43" x2="61" y2="54.3431" stroke="#4E5EC3" stroke-width="8" stroke-linecap="round"/>
</svg>
