<svg width="30" height="31" viewBox="0 0 30 31" fill="none" xmlns="http://www.w3.org/2000/svg">
<path d="M1.25037 13.9764C1.23735 14.3904 1.56242 14.7366 1.97643 14.7496C2.39043 14.7626 2.73661 14.4376 2.74963 14.0236L1.25037 13.9764ZM27.2504 13.9911C27.2642 14.4051 27.6109 14.7295 28.0249 14.7158C28.4389 14.702 28.7634 14.3553 28.7496 13.9413L27.2504 13.9911ZM28.7458 21.9701C28.7293 21.5562 28.3804 21.2341 27.9665 21.2506C27.5526 21.2671 27.2305 21.616 27.247 22.0299L28.7458 21.9701ZM26.1422 28.1682L26.6508 28.7194L26.1422 28.1682ZM19.0055 29.25C18.5913 29.2469 18.253 29.5803 18.25 29.9945C18.247 30.4087 18.5803 30.7469 18.9945 30.7499L19.0055 29.25ZM2.74963 14.0236C2.84303 11.0534 3.67329 7.98092 5.56898 5.6661C7.4425 3.37835 10.4213 1.75 15.0006 1.75V0.25C10.022 0.25 6.59737 2.04286 4.40847 4.71572C2.24174 7.36151 1.35061 10.789 1.25037 13.9764L2.74963 14.0236ZM15.0006 1.75C19.5716 1.75 22.5477 3.37249 24.4217 5.65342C26.3178 7.96118 27.1518 11.0254 27.2504 13.9911L28.7496 13.9413C28.6437 10.7582 27.7482 7.33933 25.5807 4.70119C23.3912 2.03622 19.9698 0.25 15.0006 0.25V1.75ZM6.14286 11.25C5.12397 11.25 3.65072 11.6288 2.42379 12.7453C1.17371 13.8829 0.25 15.7212 0.25 18.5H1.75C1.75 16.0788 2.54058 14.6671 3.43335 13.8547C4.34928 13.0212 5.44746 12.75 6.14286 12.75V11.25ZM0.25 18.5C0.25 21.2788 1.17371 23.1171 2.42379 24.2547C3.65072 25.3712 5.12397 25.75 6.14286 25.75V24.25C5.44746 24.25 4.34928 23.9788 3.43335 23.1453C2.54058 22.3329 1.75 20.9212 1.75 18.5H0.25ZM6.14286 25.75C6.90742 25.75 8.03624 25.5243 8.99499 24.8263C9.99153 24.1009 10.75 22.901 10.75 21.1H9.25C9.25 22.419 8.72276 23.1691 8.11215 23.6137C7.46376 24.0857 6.66401 24.25 6.14286 24.25V25.75ZM10.75 21.1V15.9H9.25V21.1H10.75ZM10.75 15.9C10.75 15.1316 10.5281 13.9945 9.83951 13.0275C9.12335 12.0217 7.93367 11.25 6.14286 11.25V12.75C7.43776 12.75 8.17665 13.2783 8.61764 13.8975C9.08615 14.5555 9.25 15.3684 9.25 15.9H10.75ZM23.8571 12.75C24.5525 12.75 25.6507 13.0212 26.5666 13.8547C27.4594 14.6671 28.25 16.0788 28.25 18.5H29.75C29.75 15.7212 28.8263 13.8829 27.5762 12.7453C26.3493 11.6288 24.876 11.25 23.8571 11.25V12.75ZM28.25 18.5C28.25 20.9212 27.4594 22.3329 26.5666 23.1453C25.6507 23.9788 24.5525 24.25 23.8571 24.25V25.75C24.876 25.75 26.3493 25.3712 27.5762 24.2547C28.8263 23.1171 29.75 21.2788 29.75 18.5H28.25ZM23.8571 24.25C23.336 24.25 22.5362 24.0857 21.8878 23.6137C21.2772 23.1691 20.75 22.419 20.75 21.1H19.25C19.25 22.901 20.0085 24.1009 21.005 24.8263C21.9638 25.5243 23.0926 25.75 23.8571 25.75V24.25ZM20.75 21.1V15.9H19.25V21.1H20.75ZM20.75 15.9C20.75 15.3684 20.9138 14.5555 21.3824 13.8975C21.8233 13.2783 22.5622 12.75 23.8571 12.75V11.25C22.0663 11.25 20.8767 12.0217 20.1605 13.0275C19.4719 13.9945 19.25 15.1316 19.25 15.9H20.75ZM27.9964 22C27.247 22.0299 27.247 22.0298 27.247 22.0296C27.247 22.0296 27.247 22.0295 27.247 22.0294C27.247 22.0293 27.247 22.0293 27.247 22.0293C27.247 22.0293 27.247 22.0296 27.247 22.0302C27.247 22.0313 27.2471 22.0334 27.2472 22.0365C27.2474 22.0427 27.2477 22.0528 27.248 22.0666C27.2487 22.0944 27.2495 22.137 27.2498 22.1929C27.2505 22.3049 27.2494 22.4695 27.2421 22.674C27.2273 23.0841 27.1876 23.648 27.0885 24.2641C26.8838 25.5379 26.4518 26.8621 25.6336 27.617L26.6508 28.7194C27.8584 27.6052 28.3536 25.8452 28.5695 24.5022C28.6808 23.81 28.7247 23.1822 28.7411 22.7279C28.7493 22.5001 28.7506 22.3143 28.7498 22.1838C28.7494 22.1185 28.7485 22.067 28.7476 22.0308C28.7472 22.0128 28.7468 21.9985 28.7464 21.9883C28.7463 21.9832 28.7461 21.9791 28.746 21.9761C28.746 21.9746 28.7459 21.9733 28.7459 21.9723C28.7459 21.9718 28.7458 21.9714 28.7458 21.971C28.7458 21.9708 28.7458 21.9706 28.7458 21.9705C28.7458 21.9703 28.7458 21.9701 27.9964 22ZM25.6336 27.617C25.2353 27.9844 24.6457 28.2901 23.9306 28.5327C23.2233 28.7726 22.4417 28.9347 21.7027 29.0429C20.9662 29.1507 20.288 29.2027 19.7934 29.2275C19.5467 29.2399 19.3469 29.2455 19.2101 29.248C19.1417 29.2493 19.0891 29.2498 19.0543 29.2499C19.037 29.25 19.024 29.25 19.0158 29.25C19.0117 29.25 19.0087 29.25 19.007 29.25C19.0061 29.25 19.0056 29.25 19.0053 29.25C19.0052 29.25 19.0051 29.25 19.0052 29.25C19.0052 29.25 19.0053 29.25 19.0053 29.25C19.0054 29.25 19.0055 29.25 19 29.9999C18.9945 30.7499 18.9947 30.7499 18.9948 30.7499C18.9949 30.7499 18.9951 30.7499 18.9953 30.7499C18.9956 30.7499 18.996 30.7499 18.9965 30.7499C18.9975 30.7499 18.9988 30.75 19.0004 30.75C19.0036 30.75 19.0081 30.75 19.0137 30.75C19.0249 30.75 19.041 30.75 19.0616 30.7499C19.1027 30.7497 19.162 30.7492 19.2375 30.7478C19.3884 30.745 19.6042 30.7389 19.8687 30.7256C20.3967 30.6991 21.1242 30.6436 21.92 30.5271C22.7134 30.4109 23.5907 30.2319 24.4125 29.9532C25.2264 29.6771 26.0361 29.2865 26.6508 28.7194L25.6336 27.617Z" fill="#4147D5"/>
</svg>
