<svg width="412" height="414" viewBox="0 0 412 414" fill="none" xmlns="http://www.w3.org/2000/svg">
<circle cx="206.5" cy="208.5" r="205.5" fill="#ACACAC"/>
<path d="M109.072 263V153.8H160.24C173.344 153.8 183.328 156.4 190.192 161.6C197.056 166.696 200.488 173.56 200.488 182.192C200.488 188.016 199.136 193.008 196.432 197.168C193.728 201.224 190.088 204.396 185.512 206.684C181.04 208.868 176.152 209.96 170.848 209.96L173.656 204.344C179.792 204.344 185.304 205.488 190.192 207.776C195.08 209.96 198.928 213.184 201.736 217.448C204.648 221.712 206.104 227.016 206.104 233.36C206.104 242.72 202.516 250 195.34 255.2C188.164 260.4 177.504 263 163.36 263H109.072ZM129.352 247.088H162.112C169.704 247.088 175.528 245.84 179.584 243.344C183.64 240.848 185.668 236.844 185.668 231.332C185.668 225.924 183.64 221.972 179.584 219.476C175.528 216.876 169.704 215.576 162.112 215.576H127.792V199.82H158.056C165.128 199.82 170.536 198.572 174.28 196.076C178.128 193.58 180.052 189.836 180.052 184.844C180.052 179.748 178.128 175.952 174.28 173.456C170.536 170.96 165.128 169.712 158.056 169.712H129.352V247.088ZM246.468 199.196H300.756V215.888H246.468V199.196ZM248.028 245.996H309.648V263H227.748V153.8H307.464V170.804H248.028V245.996Z" fill="white"/>
</svg>
