<svg width="214" height="214" viewBox="0 0 214 214" fill="none" xmlns="http://www.w3.org/2000/svg">
<circle cx="107" cy="107" r="99" stroke="#DA0909" stroke-width="16"/>
<path d="M126.857 154.69C126.188 154.69 125.563 154.355 125.192 153.797L108.248 128.318C107.429 127.087 105.604 127.139 104.857 128.414L90.0399 153.701C89.681 154.313 89.0243 154.69 88.3143 154.69H66.8876C65.3134 154.69 64.3563 152.955 65.1955 151.623L92.9555 107.571C93.3759 106.904 93.365 106.052 92.9276 105.395L64.6607 62.9887C63.7747 61.6596 64.7275 59.8794 66.3249 59.8794H88.3886C89.0581 59.8794 89.6833 60.2144 90.054 60.7719L106.726 85.8434C107.545 87.075 109.372 87.0223 110.118 85.7456L124.666 60.8697C125.025 60.2564 125.682 59.8794 126.393 59.8794H147.819C149.393 59.8794 150.35 61.6135 149.511 62.9453L122.02 106.593C121.6 107.26 121.611 108.112 122.048 108.768L150.585 151.58C151.471 152.909 150.518 154.69 148.921 154.69H126.857Z" fill="#DA0909"/>
</svg>
