<svg width="30" height="29" viewBox="0 0 30 29" fill="none" xmlns="http://www.w3.org/2000/svg">
<mask id="path-1-inside-1_32_254" fill="white">
<path d="M10.4419 4.44197C10.1979 4.19789 10.1979 3.80216 10.4419 3.55808L11.3258 2.6742C11.5699 2.43012 11.9656 2.43012 12.2097 2.6742C12.4538 2.91828 12.4538 3.314 12.2097 3.55808L11.3258 4.44197C11.0817 4.68604 10.686 4.68604 10.4419 4.44197Z"/>
<path d="M7.19194 6.45084C6.94786 6.69492 6.94786 7.09065 7.19194 7.33473C7.43601 7.5788 7.83174 7.5788 8.07582 7.33473L8.9597 6.45084C9.20378 6.20676 9.20378 5.81104 8.9597 5.56696C8.71562 5.32288 8.3199 5.32288 8.07582 5.56696L7.19194 6.45084Z"/>
<path d="M10.9419 7.70084C10.6979 7.94492 10.6979 8.34065 10.9419 8.58473C11.186 8.8288 11.5817 8.8288 11.8258 8.58473L12.7097 7.70084C12.9538 7.45676 12.9538 7.06104 12.7097 6.81696C12.4656 6.57288 12.0699 6.57288 11.8258 6.81696L10.9419 7.70084Z"/>
<path d="M14.6919 3.95084C14.4479 4.19492 14.4479 4.59065 14.6919 4.83473C14.936 5.0788 15.3317 5.0788 15.5758 4.83473L16.4597 3.95084C16.7038 3.70676 16.7038 3.31104 16.4597 3.06696C16.2156 2.82288 15.8199 2.82288 15.5758 3.06696L14.6919 3.95084Z"/>
<path d="M18.4419 6.08473C18.1979 5.84065 18.1979 5.44492 18.4419 5.20084L19.3258 4.31696C19.5699 4.07288 19.9656 4.07288 20.2097 4.31696C20.4538 4.56104 20.4538 4.95676 20.2097 5.20084L19.3258 6.08473C19.0817 6.3288 18.686 6.3288 18.4419 6.08473Z"/>
<path d="M20.9419 7.70084C20.6979 7.94492 20.6979 8.34065 20.9419 8.58473C21.186 8.8288 21.5817 8.8288 21.8258 8.58473L22.7097 7.70084C22.9538 7.45676 22.9538 7.06104 22.7097 6.81696C22.4656 6.57288 22.0699 6.57288 21.8258 6.81696L20.9419 7.70084Z"/>
<path d="M15.4419 8.95973C15.1979 8.71566 15.1979 8.31993 15.4419 8.07585L16.3258 7.19197C16.5699 6.94789 16.9656 6.94789 17.2097 7.19197C17.4538 7.43605 17.4538 7.83177 17.2097 8.07585L16.3258 8.95973C16.0817 9.20381 15.686 9.20381 15.4419 8.95973Z"/>
<path fill-rule="evenodd" clip-rule="evenodd" d="M3.39049 11.2239C2.01008 11.1952 0.883805 10.0326 1.28187 8.71052C1.46924 8.08819 1.72278 7.47896 2.04065 6.88974C2.76899 5.53964 3.82075 4.321 5.1359 3.30341C6.45104 2.28581 8.0038 1.48918 9.70553 0.959C11.4073 0.42882 13.2246 0.175476 15.0539 0.21343C16.8831 0.251383 18.6884 0.579893 20.3667 1.1802C22.045 1.78051 23.5634 2.64086 24.8352 3.71213C26.107 4.7834 27.1073 6.04461 27.779 7.42376C27.8856 7.64275 27.9837 7.86404 28.073 8.08729C28.8426 10.0101 27.0714 11.7152 25.0008 11.6722L3.39049 11.2239ZM2.47879 9.07089C2.64129 8.53116 2.86204 7.99991 3.14078 7.48322C3.77944 6.29934 4.71206 5.21185 5.90084 4.29202C7.08996 3.37194 8.50753 2.6415 10.0773 2.15242C11.647 1.66339 13.3298 1.42793 15.028 1.46316C16.7261 1.49839 18.3977 1.80346 19.9457 2.35717C21.4939 2.91095 22.8799 3.69955 24.0299 4.66817C25.1795 5.63651 26.0662 6.76175 26.6552 7.9711C26.7487 8.16318 26.8345 8.35683 26.9125 8.55177C27.0999 9.01976 26.9973 9.42627 26.6801 9.77281C26.333 10.1519 25.726 10.437 25.0267 10.4225L3.41642 9.97413C3.06249 9.96678 2.77167 9.81284 2.60763 9.62644C2.46047 9.4592 2.41605 9.27928 2.47879 9.07089Z"/>
<path d="M3.125 23.625C1.74429 23.625 0.625 24.7443 0.625 26.125C0.625 27.5057 1.74429 28.625 3.125 28.625H21.25C21.5952 28.625 21.875 28.3452 21.875 28C21.875 27.6548 21.5952 27.375 21.25 27.375H3.125C2.43464 27.375 1.875 26.8154 1.875 26.125C1.875 25.4347 2.43464 24.875 3.125 24.875H26.875C27.5654 24.875 28.125 25.4347 28.125 26.125C28.125 26.8154 27.5654 27.375 26.875 27.375H24.375C24.0298 27.375 23.75 27.6548 23.75 28C23.75 28.3452 24.0298 28.625 24.375 28.625H26.875C28.2557 28.625 29.375 27.5057 29.375 26.125C29.375 24.7443 28.2557 23.625 26.875 23.625H3.125Z"/>
<path d="M1.67042 13.1626C2.0547 13.5119 2.36984 13.625 2.625 13.625C2.88017 13.625 3.19531 13.5119 3.57958 13.1626C4.11198 12.6786 4.7135 12.375 5.375 12.375C6.03651 12.375 6.63803 12.6786 7.17042 13.1626C7.5547 13.5119 7.86984 13.625 8.125 13.625C8.38017 13.625 8.69531 13.5119 9.07958 13.1626C9.61198 12.6786 10.2135 12.375 10.875 12.375C11.5365 12.375 12.138 12.6786 12.6704 13.1626C13.0547 13.5119 13.3698 13.625 13.625 13.625C13.8802 13.625 14.1953 13.5119 14.5796 13.1626C15.112 12.6786 15.7135 12.375 16.375 12.375C17.0365 12.375 17.638 12.6786 18.1704 13.1626C18.5547 13.5119 18.8698 13.625 19.125 13.625C19.3802 13.625 19.6953 13.5119 20.0796 13.1626C20.612 12.6786 21.2135 12.375 21.875 12.375C22.5365 12.375 23.138 12.6786 23.6704 13.1626C24.0547 13.5119 24.3698 13.625 24.625 13.625C24.8802 13.625 25.1953 13.5119 25.5796 13.1626C26.112 12.6786 26.7135 12.375 27.375 12.375C28.0365 12.375 28.638 12.6786 29.1704 13.1626C29.4258 13.3947 29.4447 13.79 29.2125 14.0454C28.9803 14.3009 28.585 14.3197 28.3296 14.0875C27.9453 13.7381 27.6302 13.625 27.375 13.625C27.1198 13.625 26.8047 13.7381 26.4204 14.0875C25.888 14.5715 25.2865 14.875 24.625 14.875C23.9635 14.875 23.362 14.5715 22.8296 14.0875C22.4453 13.7381 22.1302 13.625 21.875 13.625C21.6198 13.625 21.3047 13.7381 20.9204 14.0875C20.388 14.5715 19.7865 14.875 19.125 14.875C18.4635 14.875 17.862 14.5715 17.3296 14.0875C16.9453 13.7381 16.6302 13.625 16.375 13.625C16.1198 13.625 15.8047 13.7381 15.4204 14.0875C14.888 14.5715 14.2865 14.875 13.625 14.875C12.9635 14.875 12.362 14.5715 11.8296 14.0875C11.4453 13.7381 11.1302 13.625 10.875 13.625C10.6198 13.625 10.3047 13.7381 9.92043 14.0875C9.38803 14.5715 8.78651 14.875 8.125 14.875C7.4635 14.875 6.86198 14.5715 6.32958 14.0875C5.94531 13.7381 5.63017 13.625 5.375 13.625C5.11984 13.625 4.8047 13.7381 4.42042 14.0875C3.88803 14.5715 3.28651 14.875 2.625 14.875C1.9635 14.875 1.36198 14.5715 0.829584 14.0875C0.574173 13.8553 0.55535 13.46 0.787542 13.2046C1.01973 12.9492 1.41501 12.9304 1.67042 13.1626Z"/>
<path d="M3.125 18C3.125 17.6548 3.40483 17.375 3.75 17.375H27.5C27.8452 17.375 28.125 17.0952 28.125 16.75C28.125 16.4048 27.8452 16.125 27.5 16.125H3.75C2.71447 16.125 1.875 16.9645 1.875 18C1.875 19.0356 2.71447 19.875 3.75 19.875H26.25C26.5952 19.875 26.875 20.1548 26.875 20.5C26.875 20.8452 26.5952 21.125 26.25 21.125H2.5C2.15483 21.125 1.875 21.4048 1.875 21.75C1.875 22.0952 2.15483 22.375 2.5 22.375H26.25C27.2855 22.375 28.125 21.5356 28.125 20.5C28.125 19.4645 27.2855 18.625 26.25 18.625H3.75C3.40483 18.625 3.125 18.3452 3.125 18Z"/>
</mask>
<path d="M10.4419 4.44197C10.1979 4.19789 10.1979 3.80216 10.4419 3.55808L11.3258 2.6742C11.5699 2.43012 11.9656 2.43012 12.2097 2.6742C12.4538 2.91828 12.4538 3.314 12.2097 3.55808L11.3258 4.44197C11.0817 4.68604 10.686 4.68604 10.4419 4.44197Z" fill="#4147D5"/>
<path d="M7.19194 6.45084C6.94786 6.69492 6.94786 7.09065 7.19194 7.33473C7.43601 7.5788 7.83174 7.5788 8.07582 7.33473L8.9597 6.45084C9.20378 6.20676 9.20378 5.81104 8.9597 5.56696C8.71562 5.32288 8.3199 5.32288 8.07582 5.56696L7.19194 6.45084Z" fill="#4147D5"/>
<path d="M10.9419 7.70084C10.6979 7.94492 10.6979 8.34065 10.9419 8.58473C11.186 8.8288 11.5817 8.8288 11.8258 8.58473L12.7097 7.70084C12.9538 7.45676 12.9538 7.06104 12.7097 6.81696C12.4656 6.57288 12.0699 6.57288 11.8258 6.81696L10.9419 7.70084Z" fill="#4147D5"/>
<path d="M14.6919 3.95084C14.4479 4.19492 14.4479 4.59065 14.6919 4.83473C14.936 5.0788 15.3317 5.0788 15.5758 4.83473L16.4597 3.95084C16.7038 3.70676 16.7038 3.31104 16.4597 3.06696C16.2156 2.82288 15.8199 2.82288 15.5758 3.06696L14.6919 3.95084Z" fill="#4147D5"/>
<path d="M18.4419 6.08473C18.1979 5.84065 18.1979 5.44492 18.4419 5.20084L19.3258 4.31696C19.5699 4.07288 19.9656 4.07288 20.2097 4.31696C20.4538 4.56104 20.4538 4.95676 20.2097 5.20084L19.3258 6.08473C19.0817 6.3288 18.686 6.3288 18.4419 6.08473Z" fill="#4147D5"/>
<path d="M20.9419 7.70084C20.6979 7.94492 20.6979 8.34065 20.9419 8.58473C21.186 8.8288 21.5817 8.8288 21.8258 8.58473L22.7097 7.70084C22.9538 7.45676 22.9538 7.06104 22.7097 6.81696C22.4656 6.57288 22.0699 6.57288 21.8258 6.81696L20.9419 7.70084Z" fill="#4147D5"/>
<path d="M15.4419 8.95973C15.1979 8.71566 15.1979 8.31993 15.4419 8.07585L16.3258 7.19197C16.5699 6.94789 16.9656 6.94789 17.2097 7.19197C17.4538 7.43605 17.4538 7.83177 17.2097 8.07585L16.3258 8.95973C16.0817 9.20381 15.686 9.20381 15.4419 8.95973Z" fill="#4147D5"/>
<path fill-rule="evenodd" clip-rule="evenodd" d="M3.39049 11.2239C2.01008 11.1952 0.883805 10.0326 1.28187 8.71052C1.46924 8.08819 1.72278 7.47896 2.04065 6.88974C2.76899 5.53964 3.82075 4.321 5.1359 3.30341C6.45104 2.28581 8.0038 1.48918 9.70553 0.959C11.4073 0.42882 13.2246 0.175476 15.0539 0.21343C16.8831 0.251383 18.6884 0.579893 20.3667 1.1802C22.045 1.78051 23.5634 2.64086 24.8352 3.71213C26.107 4.7834 27.1073 6.04461 27.779 7.42376C27.8856 7.64275 27.9837 7.86404 28.073 8.08729C28.8426 10.0101 27.0714 11.7152 25.0008 11.6722L3.39049 11.2239ZM2.47879 9.07089C2.64129 8.53116 2.86204 7.99991 3.14078 7.48322C3.77944 6.29934 4.71206 5.21185 5.90084 4.29202C7.08996 3.37194 8.50753 2.6415 10.0773 2.15242C11.647 1.66339 13.3298 1.42793 15.028 1.46316C16.7261 1.49839 18.3977 1.80346 19.9457 2.35717C21.4939 2.91095 22.8799 3.69955 24.0299 4.66817C25.1795 5.63651 26.0662 6.76175 26.6552 7.9711C26.7487 8.16318 26.8345 8.35683 26.9125 8.55177C27.0999 9.01976 26.9973 9.42627 26.6801 9.77281C26.333 10.1519 25.726 10.437 25.0267 10.4225L3.41642 9.97413C3.06249 9.96678 2.77167 9.81284 2.60763 9.62644C2.46047 9.4592 2.41605 9.27928 2.47879 9.07089Z" fill="#4147D5"/>
<path d="M3.125 23.625C1.74429 23.625 0.625 24.7443 0.625 26.125C0.625 27.5057 1.74429 28.625 3.125 28.625H21.25C21.5952 28.625 21.875 28.3452 21.875 28C21.875 27.6548 21.5952 27.375 21.25 27.375H3.125C2.43464 27.375 1.875 26.8154 1.875 26.125C1.875 25.4347 2.43464 24.875 3.125 24.875H26.875C27.5654 24.875 28.125 25.4347 28.125 26.125C28.125 26.8154 27.5654 27.375 26.875 27.375H24.375C24.0298 27.375 23.75 27.6548 23.75 28C23.75 28.3452 24.0298 28.625 24.375 28.625H26.875C28.2557 28.625 29.375 27.5057 29.375 26.125C29.375 24.7443 28.2557 23.625 26.875 23.625H3.125Z" fill="#4147D5"/>
<path d="M1.67042 13.1626C2.0547 13.5119 2.36984 13.625 2.625 13.625C2.88017 13.625 3.19531 13.5119 3.57958 13.1626C4.11198 12.6786 4.7135 12.375 5.375 12.375C6.03651 12.375 6.63803 12.6786 7.17042 13.1626C7.5547 13.5119 7.86984 13.625 8.125 13.625C8.38017 13.625 8.69531 13.5119 9.07958 13.1626C9.61198 12.6786 10.2135 12.375 10.875 12.375C11.5365 12.375 12.138 12.6786 12.6704 13.1626C13.0547 13.5119 13.3698 13.625 13.625 13.625C13.8802 13.625 14.1953 13.5119 14.5796 13.1626C15.112 12.6786 15.7135 12.375 16.375 12.375C17.0365 12.375 17.638 12.6786 18.1704 13.1626C18.5547 13.5119 18.8698 13.625 19.125 13.625C19.3802 13.625 19.6953 13.5119 20.0796 13.1626C20.612 12.6786 21.2135 12.375 21.875 12.375C22.5365 12.375 23.138 12.6786 23.6704 13.1626C24.0547 13.5119 24.3698 13.625 24.625 13.625C24.8802 13.625 25.1953 13.5119 25.5796 13.1626C26.112 12.6786 26.7135 12.375 27.375 12.375C28.0365 12.375 28.638 12.6786 29.1704 13.1626C29.4258 13.3947 29.4447 13.79 29.2125 14.0454C28.9803 14.3009 28.585 14.3197 28.3296 14.0875C27.9453 13.7381 27.6302 13.625 27.375 13.625C27.1198 13.625 26.8047 13.7381 26.4204 14.0875C25.888 14.5715 25.2865 14.875 24.625 14.875C23.9635 14.875 23.362 14.5715 22.8296 14.0875C22.4453 13.7381 22.1302 13.625 21.875 13.625C21.6198 13.625 21.3047 13.7381 20.9204 14.0875C20.388 14.5715 19.7865 14.875 19.125 14.875C18.4635 14.875 17.862 14.5715 17.3296 14.0875C16.9453 13.7381 16.6302 13.625 16.375 13.625C16.1198 13.625 15.8047 13.7381 15.4204 14.0875C14.888 14.5715 14.2865 14.875 13.625 14.875C12.9635 14.875 12.362 14.5715 11.8296 14.0875C11.4453 13.7381 11.1302 13.625 10.875 13.625C10.6198 13.625 10.3047 13.7381 9.92043 14.0875C9.38803 14.5715 8.78651 14.875 8.125 14.875C7.4635 14.875 6.86198 14.5715 6.32958 14.0875C5.94531 13.7381 5.63017 13.625 5.375 13.625C5.11984 13.625 4.8047 13.7381 4.42042 14.0875C3.88803 14.5715 3.28651 14.875 2.625 14.875C1.9635 14.875 1.36198 14.5715 0.829584 14.0875C0.574173 13.8553 0.55535 13.46 0.787542 13.2046C1.01973 12.9492 1.41501 12.9304 1.67042 13.1626Z" fill="#4147D5"/>
<path d="M3.125 18C3.125 17.6548 3.40483 17.375 3.75 17.375H27.5C27.8452 17.375 28.125 17.0952 28.125 16.75C28.125 16.4048 27.8452 16.125 27.5 16.125H3.75C2.71447 16.125 1.875 16.9645 1.875 18C1.875 19.0356 2.71447 19.875 3.75 19.875H26.25C26.5952 19.875 26.875 20.1548 26.875 20.5C26.875 20.8452 26.5952 21.125 26.25 21.125H2.5C2.15483 21.125 1.875 21.4048 1.875 21.75C1.875 22.0952 2.15483 22.375 2.5 22.375H26.25C27.2855 22.375 28.125 21.5356 28.125 20.5C28.125 19.4645 27.2855 18.625 26.25 18.625H3.75C3.40483 18.625 3.125 18.3452 3.125 18Z" fill="#4147D5"/>
<path d="M10.4419 4.44197C10.1979 4.19789 10.1979 3.80216 10.4419 3.55808L11.3258 2.6742C11.5699 2.43012 11.9656 2.43012 12.2097 2.6742C12.4538 2.91828 12.4538 3.314 12.2097 3.55808L11.3258 4.44197C11.0817 4.68604 10.686 4.68604 10.4419 4.44197Z" stroke="#4147D5" stroke-width="2.5" mask="url(#path-1-inside-1_32_254)"/>
<path d="M7.19194 6.45084C6.94786 6.69492 6.94786 7.09065 7.19194 7.33473C7.43601 7.5788 7.83174 7.5788 8.07582 7.33473L8.9597 6.45084C9.20378 6.20676 9.20378 5.81104 8.9597 5.56696C8.71562 5.32288 8.3199 5.32288 8.07582 5.56696L7.19194 6.45084Z" stroke="#4147D5" stroke-width="2.5" mask="url(#path-1-inside-1_32_254)"/>
<path d="M10.9419 7.70084C10.6979 7.94492 10.6979 8.34065 10.9419 8.58473C11.186 8.8288 11.5817 8.8288 11.8258 8.58473L12.7097 7.70084C12.9538 7.45676 12.9538 7.06104 12.7097 6.81696C12.4656 6.57288 12.0699 6.57288 11.8258 6.81696L10.9419 7.70084Z" stroke="#4147D5" stroke-width="2.5" mask="url(#path-1-inside-1_32_254)"/>
<path d="M14.6919 3.95084C14.4479 4.19492 14.4479 4.59065 14.6919 4.83473C14.936 5.0788 15.3317 5.0788 15.5758 4.83473L16.4597 3.95084C16.7038 3.70676 16.7038 3.31104 16.4597 3.06696C16.2156 2.82288 15.8199 2.82288 15.5758 3.06696L14.6919 3.95084Z" stroke="#4147D5" stroke-width="2.5" mask="url(#path-1-inside-1_32_254)"/>
<path d="M18.4419 6.08473C18.1979 5.84065 18.1979 5.44492 18.4419 5.20084L19.3258 4.31696C19.5699 4.07288 19.9656 4.07288 20.2097 4.31696C20.4538 4.56104 20.4538 4.95676 20.2097 5.20084L19.3258 6.08473C19.0817 6.3288 18.686 6.3288 18.4419 6.08473Z" stroke="#4147D5" stroke-width="2.5" mask="url(#path-1-inside-1_32_254)"/>
<path d="M20.9419 7.70084C20.6979 7.94492 20.6979 8.34065 20.9419 8.58473C21.186 8.8288 21.5817 8.8288 21.8258 8.58473L22.7097 7.70084C22.9538 7.45676 22.9538 7.06104 22.7097 6.81696C22.4656 6.57288 22.0699 6.57288 21.8258 6.81696L20.9419 7.70084Z" stroke="#4147D5" stroke-width="2.5" mask="url(#path-1-inside-1_32_254)"/>
<path d="M15.4419 8.95973C15.1979 8.71566 15.1979 8.31993 15.4419 8.07585L16.3258 7.19197C16.5699 6.94789 16.9656 6.94789 17.2097 7.19197C17.4538 7.43605 17.4538 7.83177 17.2097 8.07585L16.3258 8.95973C16.0817 9.20381 15.686 9.20381 15.4419 8.95973Z" stroke="#4147D5" stroke-width="2.5" mask="url(#path-1-inside-1_32_254)"/>
<path fill-rule="evenodd" clip-rule="evenodd" d="M3.39049 11.2239C2.01008 11.1952 0.883805 10.0326 1.28187 8.71052C1.46924 8.08819 1.72278 7.47896 2.04065 6.88974C2.76899 5.53964 3.82075 4.321 5.1359 3.30341C6.45104 2.28581 8.0038 1.48918 9.70553 0.959C11.4073 0.42882 13.2246 0.175476 15.0539 0.21343C16.8831 0.251383 18.6884 0.579893 20.3667 1.1802C22.045 1.78051 23.5634 2.64086 24.8352 3.71213C26.107 4.7834 27.1073 6.04461 27.779 7.42376C27.8856 7.64275 27.9837 7.86404 28.073 8.08729C28.8426 10.0101 27.0714 11.7152 25.0008 11.6722L3.39049 11.2239ZM2.47879 9.07089C2.64129 8.53116 2.86204 7.99991 3.14078 7.48322C3.77944 6.29934 4.71206 5.21185 5.90084 4.29202C7.08996 3.37194 8.50753 2.6415 10.0773 2.15242C11.647 1.66339 13.3298 1.42793 15.028 1.46316C16.7261 1.49839 18.3977 1.80346 19.9457 2.35717C21.4939 2.91095 22.8799 3.69955 24.0299 4.66817C25.1795 5.63651 26.0662 6.76175 26.6552 7.9711C26.7487 8.16318 26.8345 8.35683 26.9125 8.55177C27.0999 9.01976 26.9973 9.42627 26.6801 9.77281C26.333 10.1519 25.726 10.437 25.0267 10.4225L3.41642 9.97413C3.06249 9.96678 2.77167 9.81284 2.60763 9.62644C2.46047 9.4592 2.41605 9.27928 2.47879 9.07089Z" stroke="#4147D5" stroke-width="2.5" mask="url(#path-1-inside-1_32_254)"/>
<path d="M3.125 23.625C1.74429 23.625 0.625 24.7443 0.625 26.125C0.625 27.5057 1.74429 28.625 3.125 28.625H21.25C21.5952 28.625 21.875 28.3452 21.875 28C21.875 27.6548 21.5952 27.375 21.25 27.375H3.125C2.43464 27.375 1.875 26.8154 1.875 26.125C1.875 25.4347 2.43464 24.875 3.125 24.875H26.875C27.5654 24.875 28.125 25.4347 28.125 26.125C28.125 26.8154 27.5654 27.375 26.875 27.375H24.375C24.0298 27.375 23.75 27.6548 23.75 28C23.75 28.3452 24.0298 28.625 24.375 28.625H26.875C28.2557 28.625 29.375 27.5057 29.375 26.125C29.375 24.7443 28.2557 23.625 26.875 23.625H3.125Z" stroke="#4147D5" stroke-width="2.5" mask="url(#path-1-inside-1_32_254)"/>
<path d="M1.67042 13.1626C2.0547 13.5119 2.36984 13.625 2.625 13.625C2.88017 13.625 3.19531 13.5119 3.57958 13.1626C4.11198 12.6786 4.7135 12.375 5.375 12.375C6.03651 12.375 6.63803 12.6786 7.17042 13.1626C7.5547 13.5119 7.86984 13.625 8.125 13.625C8.38017 13.625 8.69531 13.5119 9.07958 13.1626C9.61198 12.6786 10.2135 12.375 10.875 12.375C11.5365 12.375 12.138 12.6786 12.6704 13.1626C13.0547 13.5119 13.3698 13.625 13.625 13.625C13.8802 13.625 14.1953 13.5119 14.5796 13.1626C15.112 12.6786 15.7135 12.375 16.375 12.375C17.0365 12.375 17.638 12.6786 18.1704 13.1626C18.5547 13.5119 18.8698 13.625 19.125 13.625C19.3802 13.625 19.6953 13.5119 20.0796 13.1626C20.612 12.6786 21.2135 12.375 21.875 12.375C22.5365 12.375 23.138 12.6786 23.6704 13.1626C24.0547 13.5119 24.3698 13.625 24.625 13.625C24.8802 13.625 25.1953 13.5119 25.5796 13.1626C26.112 12.6786 26.7135 12.375 27.375 12.375C28.0365 12.375 28.638 12.6786 29.1704 13.1626C29.4258 13.3947 29.4447 13.79 29.2125 14.0454C28.9803 14.3009 28.585 14.3197 28.3296 14.0875C27.9453 13.7381 27.6302 13.625 27.375 13.625C27.1198 13.625 26.8047 13.7381 26.4204 14.0875C25.888 14.5715 25.2865 14.875 24.625 14.875C23.9635 14.875 23.362 14.5715 22.8296 14.0875C22.4453 13.7381 22.1302 13.625 21.875 13.625C21.6198 13.625 21.3047 13.7381 20.9204 14.0875C20.388 14.5715 19.7865 14.875 19.125 14.875C18.4635 14.875 17.862 14.5715 17.3296 14.0875C16.9453 13.7381 16.6302 13.625 16.375 13.625C16.1198 13.625 15.8047 13.7381 15.4204 14.0875C14.888 14.5715 14.2865 14.875 13.625 14.875C12.9635 14.875 12.362 14.5715 11.8296 14.0875C11.4453 13.7381 11.1302 13.625 10.875 13.625C10.6198 13.625 10.3047 13.7381 9.92043 14.0875C9.38803 14.5715 8.78651 14.875 8.125 14.875C7.4635 14.875 6.86198 14.5715 6.32958 14.0875C5.94531 13.7381 5.63017 13.625 5.375 13.625C5.11984 13.625 4.8047 13.7381 4.42042 14.0875C3.88803 14.5715 3.28651 14.875 2.625 14.875C1.9635 14.875 1.36198 14.5715 0.829584 14.0875C0.574173 13.8553 0.55535 13.46 0.787542 13.2046C1.01973 12.9492 1.41501 12.9304 1.67042 13.1626Z" stroke="#4147D5" stroke-width="2.5" mask="url(#path-1-inside-1_32_254)"/>
<path d="M3.125 18C3.125 17.6548 3.40483 17.375 3.75 17.375H27.5C27.8452 17.375 28.125 17.0952 28.125 16.75C28.125 16.4048 27.8452 16.125 27.5 16.125H3.75C2.71447 16.125 1.875 16.9645 1.875 18C1.875 19.0356 2.71447 19.875 3.75 19.875H26.25C26.5952 19.875 26.875 20.1548 26.875 20.5C26.875 20.8452 26.5952 21.125 26.25 21.125H2.5C2.15483 21.125 1.875 21.4048 1.875 21.75C1.875 22.0952 2.15483 22.375 2.5 22.375H26.25C27.2855 22.375 28.125 21.5356 28.125 20.5C28.125 19.4645 27.2855 18.625 26.25 18.625H3.75C3.40483 18.625 3.125 18.3452 3.125 18Z" stroke="#4147D5" stroke-width="2.5" mask="url(#path-1-inside-1_32_254)"/>
</svg>
