<svg width="428" height="221" viewBox="0 0 428 221" fill="none" xmlns="http://www.w3.org/2000/svg">
<g clip-path="url(#clip0_688_205)">
<path d="M378.133 91.1689H79.4999C78.2319 91.1689 77.0158 91.6731 76.1192 92.5705C75.2226 93.4679 74.7189 94.6851 74.7189 95.9542C74.7189 97.2233 75.2226 98.4405 76.1192 99.3379C77.0158 100.235 78.2319 100.739 79.4999 100.739H87.9588V215.218C87.9588 216.487 88.4625 217.704 89.3591 218.601C90.2558 219.499 91.4718 220.003 92.7399 220.003C94.0079 220.003 95.224 219.499 96.1206 218.601C97.0172 217.704 97.5209 216.487 97.5209 215.218L97.5936 100.739H337.277L359.376 215.218C359.376 216.487 359.88 217.704 360.777 218.601C361.673 219.499 362.889 220.003 364.158 220.003C365.426 220.003 366.642 219.499 367.538 218.601C368.435 217.704 368.939 216.487 368.939 215.218L370.33 100.739H378.133C379.401 100.739 380.617 100.235 381.514 99.3379C382.41 98.4405 382.914 97.2233 382.914 95.9542C382.914 94.6851 382.41 93.4679 381.514 92.5705C380.617 91.6731 379.401 91.1689 378.133 91.1689Z" fill="#CCCCCC"/>
<path d="M131.264 69.8467V90.111H80.5389C79.2095 90.1573 77.884 89.941 76.6381 89.4746C75.3922 89.0082 74.2503 88.3007 73.2776 87.3926C72.3048 86.4845 71.5203 85.3935 70.9689 84.1819C70.4174 82.9703 70.1097 81.6619 70.0635 80.3313C70.0172 79.0008 70.2333 77.6741 70.6993 76.4271C71.1653 75.1801 71.8722 74.0372 72.7795 73.0636C73.6868 72.09 74.7769 71.3048 75.9874 70.7529C77.1979 70.2009 78.5052 69.893 79.8346 69.8467C80.0693 69.8385 80.3041 69.8385 80.5389 69.8467L131.264 69.8467Z" fill="#F2F2F2"/>
<path d="M132.51 89.9549C132.51 90.1616 132.428 90.3598 132.282 90.506C132.136 90.6521 131.938 90.7342 131.731 90.7343H79.6355C76.8074 90.7323 74.0958 89.6065 72.0967 87.6042C70.0976 85.602 68.9746 82.8872 68.9746 80.0566C68.9746 77.226 70.0976 74.5112 72.0967 72.509C74.0958 70.5067 76.8074 69.3809 79.6355 69.3789H131.731C131.834 69.3786 131.935 69.3986 132.03 69.4377C132.125 69.4767 132.211 69.5341 132.283 69.6065C132.356 69.6789 132.413 69.7649 132.453 69.8596C132.492 69.9543 132.512 70.0558 132.512 70.1583C132.512 70.2608 132.492 70.3624 132.453 70.457C132.413 70.5517 132.356 70.6377 132.283 70.7101C132.211 70.7825 132.125 70.8399 132.03 70.879C131.935 70.918 131.834 70.938 131.731 70.9377H79.6355C77.2215 70.9413 74.9077 71.9037 73.202 73.6134C71.4964 75.3232 70.5383 77.6405 70.5383 80.0566C70.5383 82.4727 71.4964 84.7901 73.202 86.4998C74.9077 88.2095 77.2215 89.1719 79.6355 89.1755H131.731C131.938 89.1756 132.136 89.2578 132.282 89.4039C132.428 89.5501 132.51 89.7483 132.51 89.9549Z" fill="#6C63FF"/>
<path d="M131.264 74.5229H76.7542C76.713 74.5231 76.6734 74.507 76.6441 74.4781C76.6147 74.4491 76.598 74.4097 76.5977 74.3685C76.5973 74.3272 76.6133 74.2875 76.6421 74.2581C76.6709 74.2286 76.7102 74.2117 76.7514 74.2112H131.264C131.305 74.2116 131.344 74.2282 131.373 74.2574C131.402 74.2866 131.418 74.326 131.418 74.367C131.418 74.4081 131.402 74.4475 131.373 74.4767C131.344 74.5059 131.305 74.5225 131.264 74.5229Z" fill="#CCCCCC"/>
<path d="M131.264 78.2641H76.7542C76.713 78.2644 76.6734 78.2482 76.6441 78.2193C76.6147 78.1903 76.598 78.1509 76.5977 78.1097C76.5973 78.0685 76.6133 78.0288 76.6421 77.9993C76.6709 77.9698 76.7102 77.9529 76.7514 77.9524H131.264C131.305 77.9528 131.344 77.9694 131.373 77.9986C131.402 78.0278 131.418 78.0672 131.418 78.1083C131.418 78.1493 131.402 78.1888 131.373 78.2179C131.344 78.2471 131.305 78.2637 131.264 78.2641Z" fill="#CCCCCC"/>
<path d="M131.264 82.0051H76.7542C76.713 82.0053 76.6734 81.9892 76.6441 81.9603C76.6147 81.9313 76.598 81.8919 76.5977 81.8507C76.5973 81.8094 76.6133 81.7697 76.6421 81.7402C76.6709 81.7108 76.7102 81.6939 76.7514 81.6934H131.264C131.305 81.6938 131.344 81.7104 131.373 81.7396C131.402 81.7688 131.418 81.8082 131.418 81.8492C131.418 81.8903 131.402 81.9297 131.373 81.9589C131.344 81.9881 131.305 82.0047 131.264 82.0051Z" fill="#CCCCCC"/>
<path d="M131.264 85.7463H76.7542C76.713 85.7465 76.6734 85.7304 76.6441 85.7015C76.6147 85.6725 76.598 85.6331 76.5977 85.5919C76.5973 85.5506 76.6133 85.5109 76.6421 85.4814C76.6709 85.452 76.7102 85.4351 76.7514 85.4346H131.264C131.305 85.435 131.344 85.4516 131.373 85.4808C131.402 85.51 131.418 85.5494 131.418 85.5904C131.418 85.6315 131.402 85.6709 131.373 85.7001C131.344 85.7293 131.305 85.7459 131.264 85.7463Z" fill="#CCCCCC"/>
<path d="M121.702 48.4971V68.7614H70.9768C68.292 68.8548 65.68 67.877 63.7154 66.043C61.7509 64.2089 60.5948 61.6689 60.5014 58.9817C60.408 56.2945 61.3849 53.6802 63.2174 51.714C65.0498 49.7477 67.5876 48.5906 70.2725 48.4971C70.5072 48.4889 70.7419 48.4889 70.9768 48.4971H121.702Z" fill="#F2F2F2"/>
<path d="M122.948 68.6053C122.948 68.812 122.866 69.0102 122.72 69.1563C122.574 69.3025 122.376 69.3846 122.169 69.3847H70.0734C67.244 69.3847 64.5304 68.2597 62.5297 66.2573C60.529 64.2548 59.405 61.5389 59.405 58.707C59.405 55.8751 60.529 53.1592 62.5297 51.1567C64.5304 49.1543 67.244 48.0293 70.0734 48.0293H122.169C122.271 48.0293 122.373 48.0495 122.467 48.0886C122.562 48.1278 122.648 48.1852 122.72 48.2576C122.792 48.3299 122.85 48.4159 122.889 48.5104C122.928 48.605 122.948 48.7063 122.948 48.8087C122.948 48.911 122.928 49.0124 122.889 49.1069C122.85 49.2015 122.792 49.2874 122.72 49.3598C122.648 49.4322 122.562 49.4896 122.467 49.5287C122.373 49.5679 122.271 49.5881 122.169 49.5881H70.0734C67.657 49.5881 65.3396 50.5488 63.631 52.259C61.9224 53.9691 60.9625 56.2885 60.9625 58.707C60.9625 61.1255 61.9224 63.4449 63.631 65.1551C65.3396 66.8652 67.657 67.8259 70.0734 67.8259H122.169C122.376 67.826 122.574 67.9081 122.72 68.0543C122.866 68.2004 122.948 68.3986 122.948 68.6053Z" fill="#3F3D56"/>
<path d="M121.702 53.1733H67.1921C67.1509 53.1735 67.1113 53.1574 67.082 53.1285C67.0526 53.0995 67.0359 53.0601 67.0355 53.0189C67.0351 52.9776 67.0511 52.9379 67.0799 52.9085C67.1087 52.879 67.148 52.8621 67.1892 52.8616H121.702C121.743 52.862 121.782 52.8786 121.811 52.9078C121.84 52.937 121.856 52.9764 121.856 53.0174C121.856 53.0585 121.84 53.0979 121.811 53.1271C121.782 53.1563 121.743 53.1729 121.702 53.1733Z" fill="#CCCCCC"/>
<path d="M121.702 56.9145H67.1921C67.1509 56.9148 67.1113 56.8986 67.082 56.8697C67.0526 56.8407 67.0359 56.8013 67.0355 56.7601C67.0351 56.7189 67.0511 56.6792 67.0799 56.6497C67.1087 56.6202 67.148 56.6033 67.1892 56.6028H121.702C121.743 56.6032 121.782 56.6198 121.811 56.649C121.84 56.6782 121.856 56.7176 121.856 56.7587C121.856 56.7997 121.84 56.8392 121.811 56.8683C121.782 56.8975 121.743 56.9141 121.702 56.9145Z" fill="#CCCCCC"/>
<path d="M121.702 60.6555H67.1921C67.1509 60.6557 67.1113 60.6396 67.082 60.6106C67.0526 60.5817 67.0359 60.5423 67.0355 60.5011C67.0351 60.4598 67.0511 60.4201 67.0799 60.3906C67.1087 60.3611 67.148 60.3443 67.1892 60.3438H121.702C121.743 60.3442 121.782 60.3608 121.811 60.3899C121.84 60.4191 121.856 60.4586 121.856 60.4996C121.856 60.5407 121.84 60.5801 121.811 60.6093C121.782 60.6385 121.743 60.6551 121.702 60.6555Z" fill="#CCCCCC"/>
<path d="M121.702 64.3967H67.1921C67.1509 64.3969 67.1113 64.3808 67.082 64.3519C67.0526 64.3229 67.0359 64.2835 67.0355 64.2423C67.0351 64.201 67.0511 64.1613 67.0799 64.1318C67.1087 64.1024 67.148 64.0855 67.1892 64.085H121.702C121.743 64.0854 121.782 64.102 121.811 64.1312C121.84 64.1603 121.856 64.1998 121.856 64.2408C121.856 64.2819 121.84 64.3213 121.811 64.3505C121.782 64.3797 121.743 64.3963 121.702 64.3967Z" fill="#CCCCCC"/>
<path d="M180.711 162.876V145.207C180.711 144.426 180.401 143.677 179.849 143.125C179.297 142.572 178.549 142.262 177.769 142.262H110.834C110.053 142.262 109.305 142.572 108.753 143.125C108.201 143.677 107.891 144.426 107.891 145.207V162.876H180.711Z" fill="#CCCCCC"/>
<path d="M180.711 169.501H107.891V192.323H180.711V169.501Z" fill="#CCCCCC"/>
<path d="M107.891 198.949V216.618C107.891 217.399 108.201 218.148 108.753 218.7C109.305 219.252 110.053 219.562 110.834 219.562H177.769C178.549 219.562 179.297 219.252 179.849 218.7C180.401 218.148 180.711 217.399 180.711 216.618V198.949H107.891Z" fill="#CCCCCC"/>
<path d="M143.933 155.514C145.152 155.514 146.14 154.525 146.14 153.305C146.14 152.085 145.152 151.096 143.933 151.096C142.715 151.096 141.727 152.085 141.727 153.305C141.727 154.525 142.715 155.514 143.933 155.514Z" fill="white"/>
<path d="M143.933 184.961C145.152 184.961 146.14 183.973 146.14 182.753C146.14 181.533 145.152 180.544 143.933 180.544C142.715 180.544 141.727 181.533 141.727 182.753C141.727 183.973 142.715 184.961 143.933 184.961Z" fill="white"/>
<path d="M144.051 213.786C145.27 213.786 146.258 212.797 146.258 211.577C146.258 210.357 145.27 209.368 144.051 209.368C142.833 209.368 141.845 210.357 141.845 211.577C141.845 212.797 142.833 213.786 144.051 213.786Z" fill="white"/>
<path d="M172.455 122.116V142.38H121.73C119.046 142.472 116.436 141.493 114.473 139.66C112.51 137.826 111.355 135.287 111.261 132.601C111.168 129.915 112.144 127.302 113.974 125.336C115.805 123.37 118.341 122.212 121.025 122.116C121.26 122.108 121.495 122.108 121.73 122.116H172.455Z" fill="#F2F2F2"/>
<path d="M173.701 142.225C173.701 142.431 173.619 142.63 173.473 142.776C173.327 142.922 173.129 143.004 172.922 143.004H120.826C117.997 143.005 115.284 141.881 113.283 139.88C111.282 137.879 110.157 135.164 110.155 132.333C110.154 129.502 111.275 126.786 113.274 124.782C115.273 122.778 117.985 121.651 120.813 121.649H172.922C173.025 121.648 173.126 121.668 173.221 121.707C173.315 121.746 173.402 121.804 173.474 121.876C173.547 121.949 173.604 122.035 173.643 122.129C173.683 122.224 173.703 122.326 173.703 122.428C173.703 122.531 173.683 122.632 173.643 122.727C173.604 122.821 173.547 122.908 173.474 122.98C173.402 123.052 173.315 123.11 173.221 123.149C173.126 123.188 173.025 123.208 172.922 123.207H120.826C118.412 123.211 116.098 124.173 114.392 125.883C112.686 127.592 111.727 129.91 111.727 132.326C111.727 134.743 112.686 137.06 114.392 138.77C116.098 140.48 118.412 141.442 120.826 141.445H172.922C173.129 141.445 173.327 141.528 173.473 141.674C173.619 141.82 173.701 142.018 173.701 142.225Z" fill="#3F3D56"/>
<path d="M172.455 126.793H117.945C117.904 126.793 117.864 126.777 117.835 126.748C117.806 126.719 117.789 126.68 117.788 126.638C117.788 126.597 117.804 126.557 117.833 126.528C117.862 126.498 117.901 126.481 117.942 126.481H172.455C172.496 126.481 172.535 126.498 172.564 126.527C172.593 126.556 172.609 126.596 172.609 126.637C172.609 126.678 172.593 126.717 172.564 126.747C172.535 126.776 172.496 126.792 172.455 126.793Z" fill="#CCCCCC"/>
<path d="M172.455 130.534H117.945C117.904 130.534 117.864 130.518 117.835 130.489C117.806 130.46 117.789 130.421 117.788 130.379C117.788 130.338 117.804 130.299 117.833 130.269C117.862 130.24 117.901 130.223 117.942 130.222H172.455C172.496 130.223 172.535 130.239 172.564 130.268C172.593 130.298 172.609 130.337 172.609 130.378C172.609 130.419 172.593 130.459 172.564 130.488C172.535 130.517 172.496 130.534 172.455 130.534Z" fill="#CCCCCC"/>
<path d="M172.455 134.275H117.945C117.904 134.275 117.864 134.259 117.835 134.23C117.806 134.201 117.789 134.162 117.788 134.12C117.788 134.079 117.804 134.039 117.833 134.01C117.862 133.981 117.901 133.964 117.942 133.963H172.455C172.496 133.964 172.535 133.98 172.564 134.009C172.593 134.039 172.609 134.078 172.609 134.119C172.609 134.16 172.593 134.199 172.564 134.229C172.535 134.258 172.496 134.274 172.455 134.275Z" fill="#CCCCCC"/>
<path d="M172.455 138.016H117.945C117.904 138.016 117.864 138 117.835 137.971C117.806 137.942 117.789 137.903 117.788 137.861C117.788 137.82 117.804 137.78 117.833 137.751C117.862 137.721 117.901 137.705 117.942 137.704H172.455C172.496 137.705 172.535 137.721 172.564 137.75C172.593 137.779 172.609 137.819 172.609 137.86C172.609 137.901 172.593 137.94 172.564 137.97C172.535 137.999 172.496 138.015 172.455 138.016Z" fill="#CCCCCC"/>
<path d="M112.881 41.7369H89.7699C89.5506 41.7367 89.3341 41.7871 89.1374 41.8841L83.3044 44.8068C83.1124 44.8885 82.9487 45.0248 82.8337 45.1989C82.7186 45.3731 82.6572 45.5772 82.6572 45.7859C82.6572 45.9947 82.7186 46.1988 82.8337 46.3729C82.9487 46.547 83.1124 46.6834 83.3044 46.7651L89.1374 49.6877C89.3341 49.7848 89.5506 49.8352 89.7699 49.835H112.881C113.199 49.8534 113.512 49.7455 113.752 49.5347C113.991 49.3239 114.138 49.0271 114.161 48.7086V42.8632C114.138 42.5447 113.991 42.248 113.752 42.0371C113.512 41.8263 113.199 41.7184 112.881 41.7369Z" fill="#3F3D56"/>
<path d="M114.161 42.8633V48.7086C114.138 49.0271 113.991 49.3239 113.752 49.5348C113.512 49.7456 113.199 49.8535 112.881 49.835H108.276V41.7369H112.881C113.199 41.7185 113.512 41.8263 113.752 42.0372C113.991 42.248 114.138 42.5448 114.161 42.8633Z" fill="#6C63FF"/>
<path d="M-25.6762 156.274C-22.7003 157.321 -19.5052 157.583 -16.3987 157.036C-13.2922 156.488 -10.3789 155.149 -7.93964 153.147C-1.72732 147.928 0.220427 139.331 1.80524 131.369C3.36776 123.52 4.93027 115.671 6.49281 107.822L-3.3211 114.585C-10.3787 119.449 -17.5952 124.469 -22.4819 131.514C-27.3685 138.559 -29.5015 148.176 -25.5753 155.799" fill="#E6E6E6"/>
<path d="M-15.27 171.969C-13.9937 173.911 -12.2394 175.49 -10.176 176.556C-8.11261 177.622 -5.80973 178.138 -3.48922 178.055C2.47442 177.771 7.44621 173.606 11.9217 169.651L25.1595 157.952L16.3983 157.533C10.0978 157.231 3.63468 156.949 -2.36635 158.894C-8.36738 160.839 -13.9019 165.519 -14.9992 171.736" fill="#E6E6E6"/>
<path d="M-27.6444 188.946C-22.8636 180.479 -17.3181 171.069 -7.40942 168.062C-4.6543 167.228 -1.7654 166.93 1.10173 167.182C2.00538 167.26 1.77973 168.654 0.877724 168.576C-3.92823 168.177 -8.7249 169.447 -12.7048 172.173C-16.5345 174.782 -19.5164 178.409 -22.0402 182.256C-23.5861 184.612 -24.9709 187.068 -26.3559 189.521C-26.7985 190.305 -28.0922 189.739 -27.6444 188.946Z" fill="#F2F2F2"/>
<path d="M243.652 90.709L241.211 89.6807L239.537 77.4375H217.246L215.432 89.6307L213.249 90.7231C213.144 90.7754 213.06 90.8615 213.011 90.9673C212.961 91.0732 212.949 91.1927 212.976 91.3064C213.003 91.4202 213.067 91.5216 213.159 91.5941C213.25 91.6666 213.364 91.7061 213.48 91.7061H243.45C243.57 91.7061 243.686 91.6646 243.779 91.5888C243.871 91.5129 243.935 91.4073 243.959 91.2899C243.982 91.1725 243.965 91.0505 243.909 90.9446C243.853 90.8387 243.762 90.7555 243.652 90.709Z" fill="#E6E6E6"/>
<path d="M283.265 79.0664H173.763C173.189 79.0651 172.638 78.8358 172.233 78.4287C171.827 78.0217 171.599 77.4701 171.599 76.8951V61.4404H285.429V76.8951C285.429 77.4701 285.201 78.0217 284.796 78.4287C284.39 78.8358 283.839 79.0651 283.265 79.0664Z" fill="#CCCCCC"/>
<path d="M285.544 68.7446H171.499V2.61748C171.5 1.92351 171.776 1.2582 172.266 0.767497C172.756 0.276796 173.421 0.000776505 174.114 0H282.929C283.622 0.000776492 284.287 0.276797 284.777 0.767497C285.267 1.2582 285.543 1.92351 285.544 2.61748L285.544 68.7446Z" fill="#3F3D56"/>
<path d="M278.732 63.9451H178.31C177.776 63.9445 177.263 63.7317 176.885 63.3534C176.507 62.9751 176.295 62.4622 176.294 61.9272V6.81734C176.295 6.28232 176.507 5.76938 176.885 5.39106C177.263 5.01274 177.776 4.79993 178.31 4.79932H278.732C279.267 4.79993 279.779 5.01274 280.157 5.39106C280.535 5.76938 280.748 6.28232 280.749 6.81734V61.9272C280.748 62.4622 280.535 62.9751 280.157 63.3534C279.779 63.7317 279.267 63.9445 278.732 63.9451Z" fill="white"/>
<path d="M252.283 83.3907C252.931 82.7913 253.703 82.3414 254.544 82.0729C255.385 81.8043 256.274 81.7235 257.149 81.8362C258.025 81.9489 258.865 82.2524 259.61 82.7252C260.356 83.198 260.989 83.8287 261.465 84.5728L275.048 82.1557L278.529 90.0592L259.299 93.2029C257.997 93.9199 256.477 94.1339 255.028 93.8045C253.579 93.4752 252.301 92.6252 251.436 91.4157C250.571 90.2062 250.18 88.7212 250.336 87.2422C250.492 85.7631 251.185 84.3927 252.283 83.3907Z" fill="#FFB6B6"/>
<path d="M264.859 93.4821L279.02 93.3054L280.812 93.2811L309.623 92.9178C309.623 92.9178 317.447 85.4473 324.259 77.7558L323.304 70.8432C322.373 64.0592 319.011 57.8449 313.843 53.3569C304.086 59.8824 298.427 72.7987 298.427 72.7987L280.564 77.0752L278.777 77.5029L267.677 80.1576L264.859 93.4821Z" fill="#6C63FF"/>
<path d="M337.35 135.97H310.917C310.917 137.104 282.022 138.024 282.022 138.024C281.384 138.504 280.804 139.055 280.29 139.666C278.748 141.508 277.905 143.835 277.91 146.238V147.881C277.911 150.604 278.992 153.215 280.916 155.14C282.839 157.066 285.448 158.148 288.169 158.149H337.35C340.07 158.147 342.678 157.064 344.601 155.139C346.525 153.214 347.606 150.603 347.609 147.881V146.238C347.605 143.516 346.523 140.906 344.6 138.982C342.677 137.057 340.069 135.974 337.35 135.97Z" fill="#E4E4E4"/>
<path d="M318.128 157.741H307.458V219.379H318.128V157.741Z" fill="#E4E4E4"/>
<path d="M277.091 219.004C277.091 220.158 293.259 219.45 313.203 219.45C333.147 219.45 349.315 220.158 349.315 219.004C349.315 217.85 333.147 208.7 313.203 208.7C293.259 208.7 277.091 217.85 277.091 219.004Z" fill="#E4E4E4"/>
<path d="M269.924 211.961L261.984 211.961L258.206 181.306L269.925 181.306L269.924 211.961Z" fill="#FFB6B6"/>
<path d="M271.949 219.665L246.346 219.664V219.34C246.346 216.695 247.396 214.158 249.265 212.287C251.134 210.417 253.668 209.366 256.311 209.366H256.312L271.95 209.366L271.949 219.665Z" fill="#2F2E41"/>
<path d="M246.455 211.961L238.515 211.961L234.737 181.306L246.456 181.306L246.455 211.961Z" fill="#FFB6B6"/>
<path d="M248.48 219.665L222.876 219.664V219.34C222.877 216.695 223.927 214.158 225.796 212.287C227.664 210.417 230.199 209.366 232.842 209.366H232.843L248.481 209.366L248.48 219.665Z" fill="#2F2E41"/>
<path d="M317.585 35.4778C325.21 35.4778 331.392 29.291 331.392 21.6592C331.392 14.0274 325.21 7.84058 317.585 7.84058C309.96 7.84058 303.779 14.0274 303.779 21.6592C303.779 29.291 309.96 35.4778 317.585 35.4778Z" fill="#FFB6B6"/>
<path d="M339.931 116.339C339.931 116.339 344.563 140.856 326.937 143.978C309.312 147.1 283.868 149.295 283.868 149.295L272.442 202.65L257.092 201.278C257.092 201.278 259.133 137.051 264.154 132.026C269.175 127.001 300.906 111.955 300.906 111.955L339.931 116.339Z" fill="#2F2E41"/>
<path d="M305.506 106.063L297.797 113.804C297.797 113.804 242.136 122.777 239.989 135.644C236.747 155.071 232.917 197.315 232.917 197.315L249.653 196.059L256.215 148.039L282.991 141.942L313.455 125.326L305.506 106.063Z" fill="#2F2E41"/>
<path d="M330.871 13.4104C329.508 10.8367 327.776 5.70738 325.026 4.75608C323.498 4.24909 321.919 3.91244 320.318 3.75224L315.642 5.55217L318.187 3.57125C317.691 3.54171 317.196 3.51756 316.701 3.4988L313.546 4.71322L315.16 3.45678C312.219 3.42656 309.183 3.73265 306.904 5.52468C304.961 7.05238 303.037 12.8396 302.725 15.2927C302.393 17.6395 302.509 20.0282 303.068 22.3313L303.867 23.0917C304.147 22.4503 304.357 21.7809 304.494 21.0947C304.781 19.8127 305.331 18.6045 306.11 17.5471C306.888 16.4897 307.879 15.6062 309.017 14.953L309.061 14.9285C310.401 14.1737 312.027 14.2085 313.563 14.2638L320.861 14.5267C322.617 14.5899 324.508 14.7011 325.877 15.8035C326.747 16.6167 327.431 17.6085 327.882 18.711C328.562 20.0851 329.892 25.2677 329.892 25.2677C329.892 25.2677 330.644 24.2894 331.004 25.0175C331.582 23.1178 331.934 21.1563 332.051 19.1739C332.166 17.1827 331.759 15.1959 330.871 13.4104Z" fill="#2F2E41"/>
<path d="M379.16 27.7275C378.279 27.7856 377.422 28.0362 376.649 28.4617C375.875 28.8872 375.204 29.4773 374.683 30.1904C374.162 30.9035 373.804 31.7222 373.633 32.589C373.463 33.4557 373.484 34.3493 373.696 35.2069L362.593 43.4038L365.925 51.3716L381.441 39.5755C382.857 39.124 384.058 38.1683 384.817 36.8896C385.576 35.6108 385.84 34.0979 385.558 32.6375C385.277 31.1771 384.471 29.8706 383.291 28.9657C382.112 28.0607 380.642 27.6202 379.16 27.7275Z" fill="#FFB6B6"/>
<path d="M377.373 44.4616L349.54 75.4002C349.54 75.4002 336.23 71.1355 325.936 66.5119L321.312 52.2959C320.238 48.998 319.78 45.5305 319.96 42.0665C334.23 38.2659 350.828 52.4074 350.828 52.4074L371.662 36.0737L377.373 44.4616Z" fill="#6C63FF"/>
<path d="M312.428 118.624C307.463 116.907 302.328 115.132 296.79 114.466L296.552 114.437L296.617 114.206C302.351 94.0585 300.92 81.1702 298.11 61.8102C297.513 57.6342 298.28 53.3769 300.299 49.6735C302.317 45.9701 305.478 43.0194 309.31 41.2616L309.344 41.2463L325.162 40.2402L325.198 40.238L336.702 43.6245C338.357 44.1153 339.805 45.1356 340.826 46.529C341.846 47.9225 342.381 49.6124 342.35 51.3396C342.226 57.7065 342.49 64.815 342.77 72.3407C343.398 89.2241 344.047 106.682 340.363 118.01L340.344 118.069L340.295 118.108C336.908 120.868 332.666 122.36 328.298 122.325C323.135 122.325 317.865 120.504 312.428 118.624Z" fill="#6C63FF"/>
<path d="M427.264 221H-80.2644C-80.4595 221 -80.6466 220.922 -80.7846 220.784C-80.9225 220.646 -81 220.459 -81 220.264C-81 220.069 -80.9225 219.881 -80.7846 219.743C-80.6466 219.605 -80.4595 219.528 -80.2644 219.528H427.264C427.46 219.528 427.647 219.605 427.785 219.743C427.923 219.881 428 220.069 428 220.264C428 220.459 427.923 220.646 427.785 220.784C427.647 220.922 427.46 221 427.264 221Z" fill="#CCCCCC"/>
<path d="M213.662 28.2H216.062V45H213.662V28.2ZM204.014 45H201.614V28.2H204.014V45ZM213.878 37.512H203.774V35.424H213.878V37.512ZM226.418 45.144C225.058 45.144 223.858 44.864 222.818 44.304C221.794 43.744 220.994 42.976 220.418 42C219.858 41.024 219.578 39.904 219.578 38.64C219.578 37.376 219.85 36.256 220.394 35.28C220.954 34.304 221.714 33.544 222.674 33C223.65 32.44 224.746 32.16 225.962 32.16C227.194 32.16 228.282 32.432 229.226 32.976C230.17 33.52 230.906 34.288 231.434 35.28C231.978 36.256 232.25 37.4 232.25 38.712C232.25 38.808 232.242 38.92 232.226 39.048C232.226 39.176 232.218 39.296 232.202 39.408H221.378V37.752H231.002L230.066 38.328C230.082 37.512 229.914 36.784 229.562 36.144C229.21 35.504 228.722 35.008 228.098 34.656C227.49 34.288 226.778 34.104 225.962 34.104C225.162 34.104 224.45 34.288 223.826 34.656C223.202 35.008 222.714 35.512 222.362 36.168C222.01 36.808 221.834 37.544 221.834 38.376V38.76C221.834 39.608 222.026 40.368 222.41 41.04C222.81 41.696 223.362 42.208 224.066 42.576C224.77 42.944 225.578 43.128 226.49 43.128C227.242 43.128 227.922 43 228.53 42.744C229.154 42.488 229.698 42.104 230.162 41.592L231.434 43.08C230.858 43.752 230.138 44.264 229.274 44.616C228.426 44.968 227.474 45.144 226.418 45.144ZM235.45 45V27.192H237.754V45H235.45ZM242.153 45V27.192H244.457V45H242.153ZM254.304 45.144C253.024 45.144 251.888 44.864 250.896 44.304C249.904 43.744 249.12 42.976 248.544 42C247.968 41.008 247.68 39.888 247.68 38.64C247.68 37.376 247.968 36.256 248.544 35.28C249.12 34.304 249.904 33.544 250.896 33C251.888 32.44 253.024 32.16 254.304 32.16C255.568 32.16 256.696 32.44 257.688 33C258.696 33.544 259.48 34.304 260.04 35.28C260.616 36.24 260.904 37.36 260.904 38.64C260.904 39.904 260.616 41.024 260.04 42C259.48 42.976 258.696 43.744 257.688 44.304C256.696 44.864 255.568 45.144 254.304 45.144ZM254.304 43.128C255.12 43.128 255.848 42.944 256.488 42.576C257.144 42.208 257.656 41.688 258.024 41.016C258.392 40.328 258.576 39.536 258.576 38.64C258.576 37.728 258.392 36.944 258.024 36.288C257.656 35.616 257.144 35.096 256.488 34.728C255.848 34.36 255.12 34.176 254.304 34.176C253.488 34.176 252.76 34.36 252.12 34.728C251.48 35.096 250.968 35.616 250.584 36.288C250.2 36.944 250.008 37.728 250.008 38.64C250.008 39.536 250.2 40.328 250.584 41.016C250.968 41.688 251.48 42.208 252.12 42.576C252.76 42.944 253.488 43.128 254.304 43.128Z" fill="#0D0051"/>
</g>
<defs>
<clipPath id="clip0_688_205">
<rect width="509" height="221" fill="white" transform="translate(-81)"/>
</clipPath>
</defs>
</svg>
