<svg width="24" height="24" viewBox="0 0 24 24" fill="none" xmlns="http://www.w3.org/2000/svg">
<path d="M23.1533 10.5287L21.5666 8.68535C21.2633 8.33535 21.0183 7.68202 21.0183 7.21535V5.23202C21.0183 3.99535 20.0033 2.98035 18.7666 2.98035H16.7833C16.3283 2.98035 15.6633 2.73535 15.3133 2.43202L13.4699 0.845352C12.6649 0.157018 11.3466 0.157018 10.5299 0.845352L8.69828 2.44368C8.34828 2.73535 7.68328 2.98035 7.22828 2.98035H5.20994C3.97328 2.98035 2.95828 3.99535 2.95828 5.23202V7.22702C2.95828 7.68202 2.71328 8.33535 2.42161 8.68535L0.846611 10.5404C0.169945 11.3454 0.169945 12.652 0.846611 13.457L2.42161 15.312C2.71328 15.662 2.95828 16.3154 2.95828 16.7704V18.7654C2.95828 20.002 3.97328 21.017 5.20994 21.017H7.22828C7.68328 21.017 8.34828 21.262 8.69828 21.5654L10.5416 23.152C11.3466 23.8404 12.6649 23.8404 13.4816 23.152L15.3249 21.5654C15.6749 21.262 16.3283 21.017 16.7949 21.017H18.7783C20.0149 21.017 21.0299 20.002 21.0299 18.7654V16.782C21.0299 16.327 21.2749 15.662 21.5783 15.312L23.1649 13.4687C23.8416 12.6637 23.8416 11.3337 23.1533 10.5287ZM16.8533 9.79368L11.2183 15.4287C11.0542 15.5925 10.8318 15.6846 10.5999 15.6846C10.3681 15.6846 10.1457 15.5925 9.98161 15.4287L7.15828 12.6054C6.99555 12.4407 6.90429 12.2185 6.90429 11.987C6.90429 11.7555 6.99555 11.5333 7.15828 11.3687C7.49661 11.0304 8.05661 11.0304 8.39494 11.3687L10.5999 13.5737L15.6166 8.55702C15.9549 8.21868 16.5149 8.21868 16.8533 8.55702C17.1916 8.89535 17.1916 9.45535 16.8533 9.79368Z" fill="#4A266A"/>
</svg>
