<svg width="40" height="40" viewBox="0 0 40 40" fill="none" xmlns="http://www.w3.org/2000/svg">
<path d="M3.25 9.375H17.95V6.25H3.25C2.4212 6.25 1.62634 6.57924 1.04029 7.16529C0.45424 7.75134 0.125 8.5462 0.125 9.375V30.625C0.125 31.4538 0.45424 32.2487 1.04029 32.8347C1.62634 33.4208 2.4212 33.75 3.25 33.75H17.95V30.625H3.25V9.375Z" fill="#263238"/>
<path d="M38.5 17.5004L28.5 10.6504L26.725 13.1504L34.425 18.4004H11.775V21.5504H34.45L26.75 26.8254L28.525 29.3254L38.5 22.5004C38.8927 22.2125 39.2121 21.8361 39.4322 21.4017C39.6523 20.9674 39.767 20.4873 39.767 20.0004C39.767 19.5135 39.6523 19.0334 39.4322 18.599C39.2121 18.1647 38.8927 17.7883 38.5 17.5004Z" fill="#263238"/>
</svg>
