<svg width="31" height="31" viewBox="0 0 31 31" fill="none" xmlns="http://www.w3.org/2000/svg">
<path d="M16.8046 3.77167L24.4254 7.15584C26.6212 8.12459 26.6212 9.72626 24.4254 10.695L16.8046 14.0792C15.9392 14.4667 14.5183 14.4667 13.6529 14.0792L6.03208 10.695C3.83625 9.72626 3.83625 8.12459 6.03208 7.15584L13.6529 3.77167C14.5183 3.38417 15.9392 3.38417 16.8046 3.77167V3.77167Z" stroke="#4E5EC3" stroke-width="1.5" stroke-linecap="round" stroke-linejoin="round"/>
<path d="M3.875 14.2083C3.875 15.2933 4.68875 16.5462 5.68333 16.9854L14.4537 20.8862C15.1254 21.1833 15.8875 21.1833 16.5463 20.8862L25.3167 16.9854C26.3112 16.5462 27.125 15.2933 27.125 14.2083" stroke="#4E5EC3" stroke-width="1.5" stroke-linecap="round" stroke-linejoin="round"/>
<path d="M3.875 20.6667C3.875 21.8679 4.58542 22.9529 5.68333 23.4438L14.4537 27.3446C15.1254 27.6417 15.8875 27.6417 16.5463 27.3446L25.3167 23.4438C26.4146 22.9529 27.125 21.8679 27.125 20.6667" stroke="#4E5EC3" stroke-width="1.5" stroke-linecap="round" stroke-linejoin="round"/>
<path d="M24.2033 14.2281C27.065 14.2281 29.4065 11.7018 29.4065 8.61404C29.4065 5.52632 27.065 3 24.2033 3C21.3415 3 19 5.52632 19 8.61404C19 11.7018 21.3415 14.2281 24.2033 14.2281Z" fill="white" stroke="#4E5EC3" stroke-width="1.5" stroke-linecap="round" stroke-linejoin="round"/>
<path d="M21.9919 8.61403L23.4644 10.2028L26.4146 7.02525" stroke="#4E5EC3" stroke-width="1.5" stroke-linecap="round" stroke-linejoin="round"/>
</svg>
