<svg width="24" height="20" viewBox="0 0 24 20" fill="none" xmlns="http://www.w3.org/2000/svg">
<path d="M19.875 5.625V17.875C19.875 18.3391 19.6906 18.7842 19.3624 19.1124C19.0342 19.4406 18.5891 19.625 18.125 19.625H2.375C1.91087 19.625 1.46575 19.4406 1.13756 19.1124C0.809374 18.7842 0.625 18.3391 0.625 17.875V5.625C0.625 5.16087 0.809374 4.71575 1.13756 4.38756C1.46575 4.05937 1.91087 3.875 2.375 3.875H18.125C18.5891 3.875 19.0342 4.05937 19.3624 4.38756C19.6906 4.71575 19.875 5.16087 19.875 5.625ZM21.625 0.375H5C4.76794 0.375 4.54538 0.467187 4.38128 0.631282C4.21719 0.795376 4.125 1.01794 4.125 1.25C4.125 1.48206 4.21719 1.70462 4.38128 1.86872C4.54538 2.03281 4.76794 2.125 5 2.125H21.625V15.25C21.625 15.4821 21.7172 15.7046 21.8813 15.8687C22.0454 16.0328 22.2679 16.125 22.5 16.125C22.7321 16.125 22.9546 16.0328 23.1187 15.8687C23.2828 15.7046 23.375 15.4821 23.375 15.25V2.125C23.375 1.66087 23.1906 1.21575 22.8624 0.887563C22.5342 0.559374 22.0891 0.375 21.625 0.375Z" fill="#263238"/>
</svg>
