<svg width="26" height="20" viewBox="0 0 26 20" fill="none" xmlns="http://www.w3.org/2000/svg">
<path d="M15.3333 11.167C14.3611 11.167 13.5347 10.8267 12.8541 10.1462C12.1736 9.46561 11.8333 8.63922 11.8333 7.66699C11.8333 6.69477 12.1736 5.86838 12.8541 5.18783C13.5347 4.50727 14.3611 4.16699 15.3333 4.16699C16.3055 4.16699 17.1319 4.50727 17.8125 5.18783C18.493 5.86838 18.8333 6.69477 18.8333 7.66699C18.8333 8.63922 18.493 9.46561 17.8125 10.1462C17.1319 10.8267 16.3055 11.167 15.3333 11.167ZM7.16663 14.667C6.52496 14.667 5.97546 14.4383 5.51813 13.981C5.0608 13.5237 4.83252 12.9745 4.8333 12.3337V3.00033C4.8333 2.35866 5.06196 1.80916 5.5193 1.35183C5.97663 0.894494 6.52574 0.666216 7.16663 0.666994H23.5C24.1416 0.666994 24.6911 0.895661 25.1485 1.35299C25.6058 1.81033 25.8341 2.35944 25.8333 3.00033V12.3337C25.8333 12.9753 25.6046 13.5248 25.1473 13.9822C24.69 14.4395 24.1409 14.6678 23.5 14.667H7.16663ZM9.49996 12.3337H21.1666C21.1666 11.692 21.3953 11.1425 21.8526 10.6852C22.31 10.2278 22.8591 9.99955 23.5 10.0003V5.33366C22.8583 5.33366 22.3088 5.10499 21.8515 4.64766C21.3941 4.19033 21.1659 3.64122 21.1666 3.00033H9.49996C9.49996 3.64199 9.2713 4.19149 8.81396 4.64883C8.35663 5.10616 7.80752 5.33444 7.16663 5.33366V10.0003C7.8083 10.0003 8.3578 10.229 8.81513 10.6863C9.27246 11.1437 9.50074 11.6928 9.49996 12.3337ZM22.3333 19.3337H2.49996C1.85829 19.3337 1.30879 19.105 0.851461 18.6477C0.394128 18.1903 0.16585 17.6412 0.166628 17.0003V4.16699H2.49996V17.0003H22.3333V19.3337Z" fill="#263238"/>
</svg>
