<svg width="24" height="20" viewBox="0 0 24 20" fill="none" xmlns="http://www.w3.org/2000/svg">
<path d="M2.66671 0.666992C2.04787 0.666992 1.45438 0.912825 1.01679 1.35041C0.579207 1.78799 0.333374 2.38149 0.333374 3.00033V7.66699C0.952213 7.66699 1.54571 7.91283 1.98329 8.35041C2.42088 8.78799 2.66671 9.38149 2.66671 10.0003C2.66671 10.6192 2.42088 11.2127 1.98329 11.6502C1.54571 12.0878 0.952213 12.3337 0.333374 12.3337V17.0003C0.333374 17.6192 0.579207 18.2127 1.01679 18.6502C1.45438 19.0878 2.04787 19.3337 2.66671 19.3337H21.3334C21.9522 19.3337 22.5457 19.0878 22.9833 18.6502C23.4209 18.2127 23.6667 17.6192 23.6667 17.0003V12.3337C23.0479 12.3337 22.4544 12.0878 22.0168 11.6502C21.5792 11.2127 21.3334 10.6192 21.3334 10.0003C21.3334 9.38149 21.5792 8.78799 22.0168 8.35041C22.4544 7.91283 23.0479 7.66699 23.6667 7.66699V3.00033C23.6667 2.38149 23.4209 1.78799 22.9833 1.35041C22.5457 0.912825 21.9522 0.666992 21.3334 0.666992H2.66671ZM16.0834 4.16699L17.8334 5.91699L7.91671 15.8337L6.16671 14.0837L16.0834 4.16699ZM8.27838 4.21366C9.42171 4.21366 10.3434 5.13533 10.3434 6.27866C10.3434 6.82633 10.1258 7.35157 9.73855 7.73883C9.35129 8.1261 8.82605 8.34366 8.27838 8.34366C7.13504 8.34366 6.21337 7.42199 6.21337 6.27866C6.21337 5.73099 6.43094 5.20575 6.8182 4.81848C7.20546 4.43122 7.7307 4.21366 8.27838 4.21366ZM15.7217 11.657C16.865 11.657 17.7867 12.5787 17.7867 13.722C17.7867 14.2697 17.5691 14.7949 17.1819 15.1822C16.7946 15.5694 16.2694 15.787 15.7217 15.787C14.5784 15.787 13.6567 14.8653 13.6567 13.722C13.6567 13.1743 13.8743 12.6491 14.2615 12.2618C14.6488 11.8746 15.174 11.657 15.7217 11.657Z" fill="#263238"/>
</svg>
