<svg width="35" height="33" viewBox="0 0 35 33" fill="none" xmlns="http://www.w3.org/2000/svg">
<line x1="24.5" y1="18" x2="24.5" y2="21" stroke="#4E5EC3"/>
<line y1="-0.5" x2="3" y2="-0.5" transform="matrix(-0.965926 0.258819 0.258819 0.965926 22.8978 24)" stroke="#4E5EC3"/>
<line x1="20.25" y1="20.567" x2="22.8481" y2="22.067" stroke="#4E5EC3"/>
<path d="M4.01334 14.96V20.9467C4.01334 26.9333 6.41334 29.3333 12.4 29.3333H19.5867C25.5733 29.3333 27.9733 26.9333 27.9733 20.9467V14.96" stroke="#4E5EC3" stroke-width="1.5" stroke-linecap="round" stroke-linejoin="round"/>
<path d="M16 16C18.44 16 20.24 14.0133 20 11.5733L19.12 2.66667H12.8933L12 11.5733C11.76 14.0133 13.56 16 16 16Z" stroke="#4E5EC3" stroke-width="1.5" stroke-linecap="round" stroke-linejoin="round"/>
<path d="M24.4133 16C27.1067 16 29.08 13.8133 28.8133 11.1333L28.44 7.46667C27.96 4.00001 26.6267 2.66667 23.1333 2.66667H19.0667L20 12.0133C20.2267 14.2133 22.2133 16 24.4133 16ZM7.52 16C9.72 16 11.7067 14.2133 11.92 12.0133L12.2133 9.06667L12.8533 2.66667H8.78666C5.29333 2.66667 3.96 4.00001 3.48 7.46667L3.12 11.1333C2.85333 13.8133 4.82666 16 7.52 16ZM16 22.6667C13.7733 22.6667 12.6667 23.7733 12.6667 26V29.3333H19.3333V26C19.3333 23.7733 18.2267 22.6667 16 22.6667Z" stroke="#4E5EC3" stroke-width="1.5" stroke-linecap="round" stroke-linejoin="round"/>
<path d="M27.6947 31.4379L24.4016 23.0391L33.4123 24.4267L29.2679 26.5603L29.0751 26.6595L29.0156 26.8655L27.6947 31.4379Z" fill="white" stroke="#4E5EC3"/>
</svg>
