<svg width="33" height="33" viewBox="0 0 33 33" fill="none" xmlns="http://www.w3.org/2000/svg">
<path d="M29.0976 16.8421C29.0976 25.2093 22.8037 32 15.0488 32C7.29385 32 2.55941 23.5722 2.55941 23.5722M2.55941 23.5722H7.2439M2.55941 23.5722V28.6316M1 16.8421C1 8.47494 7.23766 1.6842 15.0488 1.6842C24.4193 1.6842 29.0976 10.112 29.0976 10.112M29.0976 10.112V2.53305M29.0976 10.112H22.8599" stroke="#4E5EC3" stroke-width="1.5" stroke-linecap="round" stroke-linejoin="round"/>
<g clip-path="url(#clip0_1_13)">
<path d="M26.548 12.1263C29.4098 12.1263 31.7512 9.59999 31.7512 6.51227C31.7512 3.42455 29.4098 0.898239 26.548 0.898239C23.6862 0.898239 21.3447 3.42455 21.3447 6.51227C21.3447 9.59999 23.6862 12.1263 26.548 12.1263Z" fill="white" stroke="#4E5EC3" stroke-width="1.5" stroke-linecap="round" stroke-linejoin="round"/>
<path d="M24.3366 6.51226L25.8091 8.10104L28.7593 4.92349" stroke="#4E5EC3" stroke-width="1.5" stroke-linecap="round" stroke-linejoin="round"/>
</g>
<path d="M23.1341 16.8421C23.1341 21.7183 19.4791 25.6053 15.0488 25.6053C10.6184 25.6053 6.96341 21.7183 6.96341 16.8421C6.96341 11.9659 10.6184 8.07895 15.0488 8.07895C19.4791 8.07895 23.1341 11.9659 23.1341 16.8421Z" stroke="#4E5EC3"/>
<path d="M18.3522 14.4405L18.0624 15.4291H12.5397L12.8295 14.4405H18.3522ZM15.7613 21.1053L12.642 17.2871L12.6249 16.5712H14.1761C14.5795 16.5712 14.9232 16.5143 15.2073 16.4007C15.4914 16.2842 15.7087 16.1109 15.8593 15.8808C16.0099 15.6479 16.0852 15.3553 16.0852 15.003C16.0852 14.4831 15.9289 14.0754 15.6164 13.78C15.3039 13.4817 14.8238 13.3325 14.1761 13.3325H12.5397L12.8295 12.378H14.1761C14.8692 12.378 15.4374 12.493 15.8806 12.7232C16.3266 12.9504 16.6562 13.2629 16.8692 13.6607C17.0852 14.0555 17.1931 14.503 17.1931 15.003C17.1931 15.4547 17.0937 15.8709 16.8948 16.2516C16.6988 16.6294 16.3835 16.9334 15.9488 17.1635C15.517 17.3936 14.946 17.5087 14.2357 17.5087H14.2102L17.0908 21.0371V21.1053H15.7613ZM18.3522 12.378L18.0624 13.3666L13.7158 13.3325L14.0056 12.378H18.3522Z" fill="#4E5EC3"/>
<defs>
<clipPath id="clip0_1_13">
<rect width="12.4878" height="13.4737" fill="white" transform="translate(20.5122)"/>
</clipPath>
</defs>
</svg>
