<svg width="15" height="16" viewBox="0 0 15 16" fill="none" xmlns="http://www.w3.org/2000/svg">
<path d="M14.3954 14.075L11.7038 11.25C12.5722 10.0854 13.0434 8.64722 13.0417 7.16667C13.0417 5.84813 12.6702 4.5592 11.9743 3.46287C11.2784 2.36654 10.2893 1.51206 9.132 1.00747C7.97473 0.502889 6.70131 0.370866 5.47276 0.628101C4.24422 0.885336 3.11573 1.52027 2.22999 2.45262C1.34426 3.38497 0.741069 4.57286 0.496696 5.86607C0.252323 7.15928 0.377744 8.49972 0.857099 9.71789C1.33645 10.9361 2.14821 11.9773 3.18972 12.7098C4.23124 13.4423 5.45572 13.8333 6.70834 13.8333C8.11485 13.8352 9.48111 13.3392 10.5875 12.425L13.2713 15.2583C13.3448 15.3364 13.4324 15.3984 13.5289 15.4407C13.6253 15.4831 13.7288 15.5048 13.8333 15.5048C13.9378 15.5048 14.0413 15.4831 14.1378 15.4407C14.2343 15.3984 14.3218 15.3364 14.3954 15.2583C14.4696 15.1809 14.5285 15.0887 14.5687 14.9872C14.6089 14.8856 14.6296 14.7767 14.6296 14.6667C14.6296 14.5567 14.6089 14.4477 14.5687 14.3462C14.5285 14.2446 14.4696 14.1525 14.3954 14.075ZM1.95834 7.16667C1.95834 6.17776 2.23692 5.21106 2.75886 4.38882C3.28079 3.56657 4.02264 2.92571 4.89059 2.54727C5.75854 2.16883 6.7136 2.06982 7.63501 2.26274C8.55642 2.45567 9.40279 2.93187 10.0671 3.63114C10.7314 4.3304 11.1838 5.22131 11.3671 6.19122C11.5503 7.16112 11.4563 8.16646 11.0968 9.08009C10.7372 9.99372 10.1284 10.7746 9.34729 11.324C8.56616 11.8734 7.6478 12.1667 6.70834 12.1667C5.44856 12.1667 4.24038 11.6399 3.34958 10.7022C2.45878 9.76452 1.95834 8.49275 1.95834 7.16667Z" fill="#878787"/>
</svg>
