<svg width="19" height="21" viewBox="0 0 19 21" fill="none" xmlns="http://www.w3.org/2000/svg">
<path d="M17.24 8.6325L12.57 6.6225L11.53 6.1825C11.4448 6.13531 11.3728 6.06761 11.3204 5.98554C11.268 5.90347 11.2369 5.80962 11.23 5.7125V2.6525C11.23 1.6925 10.52 0.5525 9.66 0.1125C9.36 -0.0375 9 -0.0375 8.7 0.1125C7.85 0.5525 7.14 1.7025 7.14 2.6625V5.7225C7.14 5.9025 7 6.1125 6.84 6.1925L1.14 8.6425C0.51 8.9025 0 9.6925 0 10.3725V11.6925C0 12.5425 0.64 12.9625 1.43 12.6225L6.44 10.4625C6.83 10.2925 7.15 10.5025 7.15 10.9325V13.8425C7.15 14.0725 7.02 14.4025 6.86 14.5625L4.54 16.8925C4.3 17.1325 4.19 17.6025 4.3 17.9425L4.75 19.3025C4.93 19.8925 5.6 20.1725 6.15 19.8925L8.53 17.8925C8.89 17.5825 9.48 17.5825 9.84 17.8925L12.22 19.8925C12.77 20.1625 13.44 19.8925 13.64 19.3025L14.09 17.9425C14.2 17.6125 14.09 17.1325 13.85 16.8925L11.53 14.5625C11.36 14.4025 11.23 14.0725 11.23 13.8425V10.9325C11.23 10.5025 11.54 10.3025 11.94 10.4625L16.95 12.6225C17.74 12.9625 18.38 12.5425 18.38 11.6925V10.3725C18.38 9.6925 17.87 8.9025 17.24 8.6325Z" fill="#4147D5"/>
</svg>
