<svg width="66" height="24" viewBox="0 0 66 24" fill="none" xmlns="http://www.w3.org/2000/svg">
<g clip-path="url(#clip0_1_6038)">
<path d="M0.528821 20.0273H1.02166L0.559915 21.9489C0.522268 22.0532 0.506231 22.164 0.512779 22.2747C0.519327 22.3853 0.548324 22.4935 0.598005 22.5926C0.660844 22.6692 0.742046 22.7287 0.834058 22.7656C0.92607 22.8024 1.0259 22.8154 1.12427 22.8033C1.35209 22.8121 1.57525 22.7371 1.75159 22.5926C1.93156 22.4194 2.05303 22.1944 2.09906 21.9489L2.56547 20.0273H3.06064L2.59424 21.9948C2.52463 22.367 2.33056 22.7044 2.04387 22.9517C1.75036 23.1765 1.38708 23.2907 1.01777 23.2743C0.594118 23.2743 0.304167 23.1717 0.146365 22.9634C-0.0114366 22.7551 -0.0401985 22.427 0.05697 22.0041L0.528821 20.0273Z" fill="#3E3D3C"/>
<path d="M2.99078 23.1882L3.77513 19.9102L5.26453 21.8434C5.30417 21.8978 5.34226 21.953 5.38191 22.0152C5.42155 22.0774 5.45964 22.1497 5.50784 22.2267L6.03255 20.0392H6.49896L5.7115 23.3149L4.18945 21.3459L4.07285 21.1811C4.03434 21.1239 4.00277 21.0623 3.97879 20.9977L3.45253 23.1976H2.99078V23.1882Z" fill="#3E3D3C"/>
<path d="M6.45605 23.188L7.20931 20.0273H7.71147L6.96522 23.188H6.45605Z" fill="#3E3D3C"/>
<path d="M7.67084 23.188L8.43186 20.0273H10.1498L10.0394 20.4603H8.82442L8.64097 21.2447H9.85674L9.74791 21.6924H8.52748L8.173 23.1733H7.67084V23.188Z" fill="#3E3D3C"/>
<path d="M9.94995 23.188L10.7016 20.0273H11.2038L10.4521 23.188H9.94995Z" fill="#3E3D3C"/>
<path d="M11.162 23.188L11.9153 20.0273H13.6332L13.5306 20.4603H12.3149L12.1314 21.2524H13.3472L13.2376 21.6994H12.0164L11.7723 22.7185H12.988L12.8777 23.1849L11.162 23.188Z" fill="#3E3D3C"/>
<path d="M13.4582 23.1884L14.2114 20.0277H14.8862C15.1936 20.0152 15.5015 20.0386 15.8035 20.0976C15.9583 20.1377 16.1007 20.2157 16.2178 20.3246C16.362 20.4702 16.4578 20.6567 16.4922 20.8587C16.5286 21.1072 16.5157 21.3606 16.4541 21.6041C16.3882 21.8684 16.2792 22.12 16.1315 22.3488C15.9925 22.5618 15.8106 22.7434 15.5975 22.8821C15.4401 22.9893 15.2643 23.0665 15.079 23.1099C14.8114 23.1651 14.5382 23.1883 14.2651 23.1791H13.4582V23.1884ZM14.0707 22.7173H14.4944C14.6729 22.7217 14.8512 22.7058 15.0261 22.6699C15.1468 22.639 15.2609 22.5863 15.3627 22.5144C15.5063 22.4121 15.627 22.2811 15.7172 22.1296C15.8171 21.9651 15.8883 21.7848 15.9278 21.5964C15.9746 21.4256 15.9883 21.2475 15.9682 21.0717C15.9496 20.9293 15.8896 20.7955 15.7957 20.6869C15.7217 20.6085 15.6258 20.5544 15.5205 20.5314C15.3398 20.4943 15.1553 20.4784 14.9709 20.484H14.604L14.0707 22.7173Z" fill="#3E3D3C"/>
<path d="M18.7531 21.766L18.4157 23.187H17.9493L18.701 20.0263H19.462C19.6249 20.0217 19.7878 20.0347 19.9478 20.0652C20.0398 20.0821 20.1248 20.1259 20.1919 20.1911C20.2748 20.2704 20.3294 20.3747 20.3474 20.488C20.3678 20.6242 20.362 20.763 20.3303 20.8969C20.2946 21.045 20.2325 21.1853 20.1468 21.3112C20.0682 21.4298 19.9667 21.5315 19.8483 21.6105C19.7535 21.668 19.6501 21.71 19.5421 21.7349C19.3764 21.7651 19.2082 21.7786 19.0399 21.7753H18.7499L18.7531 21.766ZM18.8906 21.3462H19.0158C19.2142 21.3603 19.4131 21.3275 19.5965 21.2506C19.6542 21.2141 19.7035 21.1659 19.7414 21.1091C19.7793 21.0524 19.8049 20.9883 19.8165 20.921C19.8401 20.8623 19.8467 20.7981 19.8354 20.7357C19.8241 20.6734 19.7955 20.6156 19.7527 20.5689C19.5949 20.4827 19.4145 20.4469 19.2358 20.4663H19.1106L18.8906 21.3462Z" fill="#3E3D3C"/>
<path d="M22.0305 23.1882L21.875 22.3728H20.6499L20.0995 23.1882H19.574L21.8509 19.9102L22.5505 23.1882H22.0305ZM20.9484 21.9445H21.8035L21.662 21.2215C21.6533 21.1701 21.6484 21.1182 21.6472 21.0661C21.6394 21.0016 21.6363 20.9367 21.6379 20.8717C21.609 20.9388 21.5755 21.0037 21.5376 21.0661C21.5097 21.1235 21.4778 21.1788 21.442 21.2316L20.9484 21.9445Z" fill="#3E3D3C"/>
<path d="M23.2821 23.1886L23.6265 21.7458L22.9999 20.0356H23.5254L23.918 21.1099C23.9263 21.147 23.9367 21.1836 23.9491 21.2195C23.9639 21.267 23.9732 21.3128 23.9879 21.361L24.0812 21.2195C24.1147 21.1721 24.1457 21.1333 24.1768 21.0952L25.0933 20.0356H25.5955L24.1286 21.7365L23.7866 23.1792H23.2844L23.2821 23.1886Z" fill="#3E3D3C"/>
<path d="M28.0492 21.6265C28.0538 21.5582 28.0618 21.4902 28.0733 21.4228C28.0748 21.3466 28.0826 21.2707 28.0966 21.1958C28.0655 21.2665 28.0344 21.3365 27.994 21.4158C27.9525 21.4924 27.9054 21.5659 27.8533 21.6358L26.6446 23.3203L26.2559 21.6039C26.2389 21.5362 26.2254 21.4677 26.2155 21.3987C26.207 21.3342 26.2021 21.2694 26.2007 21.2044C26.1844 21.2665 26.1603 21.3365 26.1369 21.4158C26.1111 21.4936 26.0797 21.5695 26.0429 21.6428L25.3371 23.1975H24.8753L26.3966 19.9116L26.8296 21.9047C26.8395 21.9562 26.8468 22.008 26.8513 22.0602C26.8595 22.1526 26.873 22.2445 26.8917 22.3354C26.9469 22.2421 27.0161 22.1317 27.1117 21.991C27.1311 21.9634 27.1488 21.9346 27.1646 21.9047L28.5218 19.9116L28.4737 23.2115H28.0119L28.0492 21.6265Z" fill="#3E3D3C"/>
<path d="M28.8831 23.188L29.6363 20.0273H31.3465L31.2493 20.4658H30.0304L29.8501 21.2579H31.0627L30.9531 21.7049H29.7374L29.4933 22.724H30.709L30.5994 23.1904L28.8831 23.188Z" fill="#3E3D3C"/>
<path d="M31.1658 23.1882L31.9579 19.9102L33.4488 21.8434C33.4869 21.8978 33.5266 21.953 33.5662 22.0152C33.6059 22.0774 33.644 22.1497 33.6922 22.2267L34.2169 20.0392H34.6786L33.8927 23.3149L32.3745 21.3459L32.2603 21.1811C32.2208 21.1242 32.1887 21.0626 32.1647 20.9977L31.6384 23.1976H31.1673L31.1658 23.1882Z" fill="#3E3D3C"/>
<path d="M36.2788 20.4604L35.6282 23.1811H35.126L35.7767 20.4604H34.9604L35.0631 20.022H37.1953L37.0951 20.4604H36.2788Z" fill="#3E3D3C"/>
<path d="M36.8047 22.5525L37.2501 22.3691C37.2487 22.429 37.2598 22.4885 37.2829 22.5438C37.3059 22.5991 37.3403 22.649 37.3838 22.6901C37.4891 22.7693 37.6193 22.8082 37.7508 22.7997C37.8894 22.8039 38.0251 22.759 38.134 22.673C38.2432 22.5898 38.3188 22.47 38.347 22.3356C38.3944 22.153 38.284 21.9843 38.0166 21.8428C37.9894 21.8243 37.9605 21.8084 37.9303 21.7954C37.7072 21.6897 37.5134 21.5309 37.366 21.3329C37.2867 21.1776 37.2702 20.9978 37.3201 20.8307C37.3782 20.5807 37.5221 20.3591 37.7267 20.2042C37.9368 20.0425 38.1954 19.9564 38.4605 19.9601C38.651 19.9511 38.84 19.9976 39.0046 20.0938C39.0686 20.1371 39.1222 20.194 39.1615 20.2606C39.2007 20.3271 39.2247 20.4016 39.2316 20.4786L38.7893 20.6822C38.7619 20.5962 38.7104 20.5198 38.6408 20.4622C38.5726 20.4145 38.4908 20.39 38.4076 20.3923C38.2836 20.3887 38.1621 20.4277 38.0632 20.5027C37.9685 20.5734 37.9032 20.6767 37.8798 20.7926C37.8316 20.9753 37.9661 21.1587 38.2685 21.3259C38.2863 21.3373 38.3047 21.3477 38.3237 21.357C38.5336 21.4483 38.7149 21.5947 38.8484 21.7806C38.9299 21.9405 38.9469 22.1255 38.8958 22.2976C38.835 22.5802 38.6768 22.8325 38.4488 23.0104C38.2176 23.1878 37.9334 23.2822 37.6419 23.2786C37.4247 23.2934 37.2095 23.2281 37.0371 23.0951C36.9559 23.0315 36.892 22.9485 36.8514 22.8536C36.8107 22.7588 36.7947 22.6552 36.8047 22.5525Z" fill="#3E3D3C"/>
<path d="M40.4998 23.188L41.2515 20.0273H41.7537L41.0004 23.188H40.4998Z" fill="#3E3D3C"/>
<path d="M41.72 23.1882L42.5051 19.9102L43.9976 21.8318C44.0357 21.887 44.0753 21.9414 44.115 22.0043C44.1546 22.0673 44.1927 22.138 44.2394 22.215L44.7656 20.0275H45.2274L44.4446 23.3056L42.9249 21.3366L42.8075 21.1718C42.768 21.1149 42.7359 21.0533 42.7119 20.9883L42.1879 23.1882H41.7215H41.72Z" fill="#3E3D3C"/>
<path d="M46.8267 20.4604L46.1753 23.1811H45.6732L46.3238 20.4604H45.5084L45.611 20.022H47.7432L47.6422 20.4604H46.8267Z" fill="#3E3D3C"/>
<path d="M47.3659 23.188L48.1199 20.0273H49.8449L49.7423 20.4658H48.5265L48.343 21.2579H49.5588L49.4508 21.7049H48.235L47.9917 22.724H49.2051L49.0955 23.1904L47.3659 23.188Z" fill="#3E3D3C"/>
<path d="M50.4669 21.7659L50.1295 23.1776H49.6584L50.4171 20.0192H51.1168C51.2731 20.0153 51.4295 20.0281 51.5832 20.0573C51.6808 20.0751 51.771 20.1217 51.842 20.191C51.9212 20.2721 51.9731 20.3759 51.9905 20.488C52.0123 20.6211 52.0073 20.7572 51.9757 20.8883C51.9304 21.1147 51.818 21.3222 51.6531 21.4838C51.4885 21.6291 51.283 21.7201 51.0647 21.7442L51.7798 23.1776H51.2147L50.5291 21.7659H50.4669ZM50.6006 21.3773H50.6947C50.8828 21.3925 51.0717 21.3604 51.2442 21.284C51.3003 21.2449 51.3479 21.1948 51.3841 21.1369C51.4203 21.0789 51.4444 21.0142 51.4549 20.9466C51.4953 20.774 51.479 20.6497 51.4005 20.5797C51.2528 20.4892 51.079 20.4506 50.9069 20.4701H50.8136L50.6006 21.3773Z" fill="#3E3D3C"/>
<path d="M52.0665 23.188L52.8182 20.0273H54.5361L54.4498 20.4603H53.234L53.0514 21.2447H54.2664L54.1568 21.6924H52.9285L52.5741 23.1733H52.0665V23.188Z" fill="#3E3D3C"/>
<path d="M56.2139 23.1882L56.0585 22.3728H54.8334L54.2838 23.1882H53.7575L56.0328 19.9102L56.7386 23.1976L56.2139 23.1882ZM55.1256 21.9445H55.9807L55.8385 21.2215C55.8279 21.1704 55.8222 21.1183 55.8214 21.0661C55.8175 21.0014 55.8175 20.9365 55.8214 20.8717C55.7928 20.9393 55.7584 21.0043 55.7188 21.0661C55.6917 21.1234 55.6605 21.1788 55.6255 21.2316L55.1256 21.9445Z" fill="#3E3D3C"/>
<path d="M60.0014 20.7954C59.8955 20.6744 59.7623 20.5803 59.6127 20.521C59.4619 20.4559 59.2989 20.4238 59.1346 20.427C58.8053 20.4257 58.4864 20.542 58.2352 20.755C57.9702 20.9763 57.7859 21.2792 57.7113 21.6163C57.6672 21.7571 57.6542 21.9057 57.6731 22.052C57.692 22.1983 57.7425 22.3387 57.8209 22.4636C57.899 22.5745 58.0045 22.6631 58.1272 22.7209C58.2498 22.7786 58.3854 22.8036 58.5205 22.7932C58.7069 22.7948 58.8917 22.76 59.0647 22.6906C59.2611 22.6178 59.4464 22.5179 59.615 22.3937L59.4673 22.9759C59.3149 23.0744 59.1481 23.1486 58.973 23.1959C58.7997 23.2433 58.6208 23.2666 58.4412 23.2651C58.2257 23.27 58.0116 23.23 57.8124 23.1477C57.6352 23.0721 57.4814 22.9506 57.3669 22.7956C57.2475 22.6405 57.1713 22.4565 57.1462 22.2623C57.1135 22.0425 57.1268 21.8183 57.185 21.6039C57.2399 21.3732 57.3329 21.1533 57.4602 20.9532C57.5866 20.7485 57.7485 20.5679 57.9383 20.42C58.1196 20.2663 58.3271 20.1465 58.5509 20.0663C58.764 19.9882 58.9893 19.9485 59.2163 19.9489C59.3868 19.9462 59.5566 19.9725 59.7184 20.0267C59.8707 20.0837 60.0111 20.1683 60.1328 20.2762L60.0014 20.7954Z" fill="#3E3D3C"/>
<path d="M60.0488 23.188L60.8005 20.0273H62.5169L62.4135 20.4658H61.1985L61.0151 21.2579H62.2308L62.1205 21.7049H60.9031L60.659 22.724H61.8772L61.7675 23.1904L60.0488 23.188Z" fill="#3E3D3C"/>
<path d="M50.9197 17.2758H47.4822L52.2598 0H55.7027L50.9197 17.2758Z" fill="#71716F"/>
<path d="M49.1333 0.544179C48.8985 0.211992 48.5316 0.0458984 48.0326 0.0458984H29.1103L28.1775 3.43358H45.3833L44.379 7.04903H27.1747L24.3203 17.3606H27.7632L29.6755 10.4422H45.1494C45.6467 10.4387 46.1279 10.2651 46.5128 9.9501C46.9203 9.64631 47.2155 9.21602 47.3524 8.72655L49.2646 1.80815C49.4155 1.28499 49.3673 0.86911 49.1333 0.544179Z" fill="#71716F"/>
<path d="M22.3099 16.192C22.217 16.5246 22.0183 16.8179 21.7438 17.0273C21.4692 17.2368 21.1339 17.351 20.7886 17.3526H3.04562C2.83838 17.3679 2.63063 17.3308 2.44152 17.2447C2.25241 17.1585 2.08803 17.0262 1.96355 16.8598C1.84357 16.6824 1.76742 16.479 1.74134 16.2665C1.71525 16.0539 1.73999 15.8382 1.81352 15.637L6.14102 0.0527344H9.58467L5.71814 13.9867H19.4889L23.3554 0.0527344H26.7983L22.3099 16.192Z" fill="#71716F"/>
<path d="M61.6469 0.03125L65.9992 8.68858L56.8467 17.3459L61.6469 0.03125Z" fill="#078142"/>
<path d="M58.5888 0.03125L62.9412 8.68858L53.7817 17.3459L58.5888 0.03125Z" fill="#EA7726"/>
</g>
<defs>
<clipPath id="clip0_1_6038">
<rect width="66" height="23.3205" fill="white"/>
</clipPath>
</defs>
</svg>
